<?xml version="1.0" encoding="UTF-8"?>
<svg id="Layer_1" data-name="Layer 1" xmlns="http://www.w3.org/2000/svg" viewBox="0 0 500 400">
  <defs>
    <style>
      .cls-1 {
        fill: transparent;
      }

      .cls-2 {
        fill: #fff;
      }
    </style>
  </defs>
  <rect class="cls-1" width="500" height="400"/>
  <path class="cls-2" d="M351.91,171.19c.23-.34.54-.27,0-.66l-1.66-.51c.08,2.44-1.58,1.65-3.2,2.32l-1.14,5.37c2.29-.03,2.62-2.61,3.52-4,.58-.89,1.93-1.67,2.5-2.52ZM355.58,225.85c.44.38,2.04-1.28,1.67-2l-1.67,2ZM338.2,171.36l-1.02.15-.26.41-.05,2.79c1.78-.14,1.32-2.15,1.33-3.34ZM356.25,274.65c.27-1.81-.39-3.44-1.17-5.01-1.49.64.33,6,1.17,5.01ZM339.87,171.69c.64-.59-1.34-1.5-1.33-.5,0,.34,1.11.71,1.33.5ZM364.26,183.89c-2.62,2.48-4.92,5.6-8.02,7.64-1.61,1.06-4.37,1.54-6.02,2.72-1.83,1.31-4.22,4.61-5.78,6.42-.75.87-1.78.99-1.89,2.79l4.13-3.07c5.25-5.38,12.98-10.68,19.5-14.59,3.64-2.18,14.98-5.5,18.93-4.34.65.19.83,1.09,1.75,1.26,1.03.2,2.41-.12,3.5,0-1.06-1.12-4.8-3.23-6.2-3.32-1.62-.11-7.9,1.06-9.91,1.42-2.78.5-8.06,1.26-9.97,3.07ZM344.22,171.7h-1v1.34h1v-1.34ZM384,202.29c-.16-.89-1.79.08-2.12.21l-5.57,4.8c2.13.86,2.48-1.44,3.1-2.08.52-.53,4.75-2.03,4.58-2.93ZM364.61,219.17l-2,.83c.64,1.33,2.1-.75,2-.83ZM336.86,185.9l.67.34c.85-.36.9-4.41,1.09-5.6.14-.9,1.09-1.92.26-2.77-1.11-.79-1.9,1.24-2.02,2.02-.26,1.81.19,4.14,0,6.02ZM369.3,213.66l1.17,1.18c1.65-.6,1.18-2.13,0-3.02l-1.16,1.84ZM372.52,210.55c0,.39.31.7.7.7s.7-.31.7-.7-.31-.7-.7-.7-.7.31-.7.7ZM356.48,72.43c.72.43,6.22.48,7.31.33,1.05-.15,1.88-1.07,3.16-.68.33,1.15-2.05.69-2.32,1.02-.28,1.69.61,1.88,2.08,1.58.94-.19,6.89-3.53,7.43-4.28.25-.35,2.26-3.44,2.33-3.64.25-.68-.2-2.96.04-3.73.21-.69,1.04-1.38,1.07-2.2.02-.6-.57-1.03-.57-1.61,0-1.07.93-2.6.66-4.69-.04-.3-.82-4.27-.89-4.5-.72-2.17-2.92-4.43-3.62-6.7-3.28-1.39-5.48-3.6-9.32-3.24-.75.07-1.2.62-1.81.8-2.39.72-5.02,1.05-7.31,2.05-2.98,1.3-6.57,4.66-7.65,7.72-.25.71-.02,1.48-.22,2.12-.14.46-.73.69-.87,1.14-.19.62-.18,3.55-.09,4.3.08.65.59.44.8.91.36.8-.3,2.46.02,3.11.17.35.68.33.86.74.18.39.05,1.15.32,1.55.2.3.75.12.94.26.23.18.84,2.32,1.61,2.94.53.43,1.06.22,1.41.43.38.23,2.32,2.12,3.56,2.96.62.42.78,1.12,1.1,1.32ZM351.4,63.7c-.08-.11-1.05-2.43-1.09-2.56-.46-1.57-.99-4.9-.66-6.52.67-3.25,2.31-5.42,5-7.36,3.62-2.62,6.33-3.11,10.79-2.59,2.97.35,4.89,2.01,6.64,4.22,1,1.26,1.67,2.78,2.06,4.45,1.37,5.92-7.54,13.9-12.79,14.99-2.68.56-8.37-2.42-9.96-4.63ZM358.92,230.53l-1.67.5.5,1.16,1.16-1.67ZM384.29,206.58c.06-.36-.82-1.05-.29-1.79-1.54-.29-1.12,1-1.66,1.85-.47.74-3.49,2.02-2.69,2.83.35.35,4.54-2.25,4.64-2.89ZM377.65,212.81c1.03.32,1.73-2.02.83-2-.47.01-1.07,1.45-.83,2ZM379.43,200.38c-1.2.42-2.66,1.73-2.78,3.07l2.99-1.85.68-.99c-.49-.63-.39-.4-.88-.23ZM342.55,174.2c-2.89-1.46-1.72,5.66,0,4.52.34-1.16,1.41-3.81,0-4.52ZM340.87,284.01h1.67s0-.33,0-.33c-.71-.02-1.42-.59-1.67.33ZM353.02,77.82c4.36,1.51,8.88,1.04,13.44,1.26.78.04,1.26.56,1.72.61,1.43.15,4.12-2.24,5.87-2.7,2.22-.58,2.03.95,3.05,1.99,5.31,5.47,8.02,11.32,11.78,17.82.15.26.67.28.76.4.26.35-.35,1.08-.24,1.24.09.14,1.14.82,1.62,1.56,6.54,9.97,10.03,20.53,14.54,31.58.38.92,1.34,1.43,1.18,2.67l1-.5c-.23-.2-.49-.4-.56-.72-.6-2.82-1.43-6.34-2.13-9.29-1.82-7.67-6.41-19.07-10.55-25.57-.22-.35-1.7-1.33-1.75-1.43-.14-.27.36-.77.13-1.26-2.14-4.71-6.8-10.19-9.54-14.56-1.14-1.82-2.08-3.16-1.94-5.34l.75-.5c2.01,2.33,5.24,4.33,6.07,7.32,1.88.87.93,2.42,2.45,3.24-.79,1.39.9,1.53,1.57,2.58,1.01,1.58,2.37,3.99,3.35,5.65,4.48,7.61,7.19,15.63,10.45,23.59,5.76,14.08,13.19,28,15.97,43.13,1.54,8.41,2.27,17.77,5.3,25.62.31.81,1.37,2.61,1.4,2.77.19.86-.07,1.78.15,2.53.12.41.65.65.83,1.12.56,1.48-.75,2.11-.91,3.27-.7,5.07.34,12.18-.29,17.42-.08.66-.63.46-.8.89-.58,1.45-.05,3.7-.23,5.28h2.01c-1.01,2.2.32,6.33-.51,8.34-1.1,2.64-.39,2.61-.83,4.85-.14.7-.73.89-.92,1.42-.1.27-.49,4.99-1.74,4.1l-.67-1c-.22,1.09-.73,2.38-2.01,2.5.39-2.04,2.92-5.01,3.27-6.76.6-2.98.29-7.63,1.61-10.24.07-.14.99-1.98.14-1.33-.14.1.02.75-1.01.45l-.5-2.34c-1.23.91.01,1.71.15,2.52.52,3.13-1.06,4.19-1.63,6.69-.13.56-.22,3.69-.36,3.82h-1c-.2-2.68,1.35-5.23,1-7.87-.06-.46-.24-1.05-.67-.49-.1.77.15,1.72,0,2.44-.06.27-.69.23-.86.86-1.41,5.24-2.2,10.49-4.42,15.65-2.92,6.76-6.53,9.7-13.21,12.53-5.1,2.16-6.32,1.26-11.11,1.93-5.83.82-13.87,1.26-19.29-.39-.85-.26-2.94-.96-3.7-1.29-1.39-.61-2.54-1.68-3.9-2.32.46-1.26,1.73-.34,2.47-.42.55-.06.95-.7,1.45-.84,3.74-1,8.52-1.39,12.45-2.26,1.73-.38,3.78-.43,5.35-1.33-3.49-1.95-7.53-1.1-11.16-1.54-2.75-.33-7.43-2.15-9.91-3.12-.89-.35-1.45-1.18-2.77-.91l-.56-.76c.47-1.28.99-2.54,1.62-3.75,3.86-7.38,10.09-16.61,15.75-22.69,3.39-3.64,5.69-6.44,8.87-10.18,2.39-2.81,5.94-5.29,8.03-8.02.26-.34.65-.42.5-1-1.13-.1-2.3.58-3.39.48-.89-.08-1.64-.79-2.12-.8-.61-.02-1.25.78-1.97.68-.27-.04.1-.78-.98-.68-1.87.17-3.67,1.89-4.93,3.16l-.24.61c.57,2.3.91,4.69,2.23,6.82l-.09.43c-.97.46-1.94,1.88-2.74,2.3-.85.45-1.74.3-2.59.75-1.17.62-3.08,2.85-4.39,3.63l-1.28-1.3c-2.17,1.11-1.6,3.34-4.9,2.64,1.1,1.26-.75,3.4-1.82,4.03-.53.31-1.39.27-1.48.35-.14.14,0,.89-.22,1.28-.27.47-.95.72-1.1,1.25-.24.85.09,1.54-.37,2.64-.6,1.43-2.95,3.34-3.86,4.5-1.93,2.44-3.77,5.12-5.67,7.71-.47.64-.26,1.62-1.29,2.08-.88.39-5.39-2.44-6.27-3.26-2.18-2.04-2.3-2.52-4.97-4.39-2.72-1.91-5.38-3.58-7.57-6.15-.29-.67,5.51-4.65,6.35-5.36,2.17-1.81,4.19-3.87,6.37-5.66,1.04-.85,3.22-1.87,3.85-2.5,1.67-1.67,1.8-4.99,4.51-7.19,3.36-2.74,16.93-7.53,21.55-8.87,5.16-1.49,9.98-1.73,15.13-2.59,6.57-1.1,2.09-3.38-1.49-4.36-4.03-1.1-8.64-.91-12.78-1.6-.87-.15-1.66-.96-2.36-.96-.69,0-11.08,5.06-12.54,5.82-5.42,2.82-11.42,6.19-15.53,9.53-3.82,3.11-11.15,7.39-13.87,10.54-3.12,3.62-5.99,8.08-9.02,11.7-1.8,2.14-6.27,6.19-8.54,7.84-.45.33-.88.75-1.5.67.12-2.14,2.26-2.77,3.49-4.37,1.95-2.53,3.64-6.2,5.46-8.91,4.51-6.72,10.65-15.75,16.14-21.29,4.06-4.1,8.02-8.7,12.18-12.57,1.47-1.36,7.93-6.3,9.57-7.15,1.21-.62,3.4-.67,4.88-1.46.77-.42,1.31-1.35,2.08-1.6,1.59-.49,7.76.3,8.71-.49.1-.82,0-.53-.47-.7-.73-.27-1.62-.34-2.39-.62-2.78-1.02-4.6-2.26-7.84-1.69-.09-.48.64-.44.99-.5,3.34-.6,5.83.41,9.03.51.03-2.34-1.58-1.34-2.73-1.51-.62-.09-1.1-.67-1.54-.75-4.9-.86-4.74.38-8.68,1.84-1.99.74-4.17,1.13-6.1,1.92-2.69,1.11-4.04,3.25-7,3.87l.29.61c-1.07.55-2.31.59-3.37,1.15-.49.26-5.3,5-5.96,5.74-.29.33-2.35,3.14-2.34,3.34.01.24.75.36.91.59.73,1.08-.17,4.33-.24,5.6h-1s-1.01-3.35-1.01-3.35c-1.03-.91-4.82,4.23-5.42,5.1-3.38,4.92-6.33,10.13-9.76,14.98-5.88,8.32-11,17.16-17.25,25.2-1.06,1.36-2.57,2.56-3.61,4.08-1,1.45-2.05,4.5-2.92,5.44-.28.3-.33.46-.82.35l.17-3.67c-1.48,1.23-1.87,2.11-.84,3.84-.59.87-1.31.37-2.15.23-.8,1.76-3.63,4.91-4.07,6.63-.21.84.17,1.39.05,2.02-.67,3.52-1.77,3.99-3.34,6.7-1.73,2.99-3.21,6.12-4.94,9.1-.66,1.14-2.64,3.45-2.94,4.42-.36,1.17,1.96-.29,2.33.33-.94,2.01-2.38,4.12-3.25,6.11-.48,1.1-.54,2.6-.94,3.41-.47.96-2.31,2.24-3.23,4.46-.95,2.3-1.97,5.48-1.94,7.92,9.74-12.28,17.75-25.83,27.75-37.93,4.88-5.91,10.37-11.25,15.54-16.88,2.86-3.12,5.34-6.72,8.35-9.7,1.57-1.56,5.81-6.23,5.86-1.33,1,.39.68-1.48,1.68-.85.17.11,2.15,2.74,2.49,3.2.4.54.45,1.27.84,1.83.29.4,2.44,2.41,2.01,1.01-.29-.94-2.08-2.25-1.5-3.51.57.62,1.83,2.58,2.52,2.85.52.21,1.02-.3,1.65-.03.54.23,3.66,2.88,4.59,3.47,1.42.91,3.19,1.86,4.79,2.4.16,1.57-1.69,0-2.31-.14-.64-.14-1.42.18-2.03-.03-1.33-.45-3.16-2.18-4.18-3.18l.5,2c-.18.21-2.56-2.63-3.34-1.83-.05.68.28,1.18.68,1.68.86,1.08,3.03,3.12,4.11,4.05.23.19.87.05,1.21.31.69.52,1.33,1.85,2.04,2.3,1.05.67,2.01.3,2.66.68.38.22.62,1.18,1.15,1.53.82.53,3.04,1.27,3.77,1.74.3.19.91,1.54,1.59,1.93.55.32,1.49-.15,2.04.99l-.53,1.66c-.85.29-.81-.95-1.22-1.03-.59-.11-1.39.48-1.9.33-.42-.13-.54-.85-.92-1.11-1.78-1.18-4.23-2.29-5.95-3.4-.8-.52-1.24-1.57-2.2-1.81-.53.3.08.76.32,1.02.82.86,3.64,3.79,4.35,4.35.65.51,1.45.55,2.03.98.78.58,2.12,2.08,2.92,2.6.69.45,2.94.99,3.69,1.42.39.22,2.23,1.95,2.65,2.11.73.28,1.23.28,1.93-.11.1,1.88.85,1.05,1.75,1.42,1.28.53,2.93,1.27,4.1,1.63,1.4.42,4.64.25,5.51,1.79,5.55-.16,12.75,1.33,18.2.49,6.23-.96,18.14-5.39,23.09-9.34,8.09-6.46,15.05-19.95,15.88-30.26.19-2.38-.19-4.99,0-7.36.14-1.86.86-3.82,1.01-5.68.3-3.73.25-7.77.34-11.53l-1,.33c-.18-3.56.23-7.32,0-10.86-.63-9.42-4.19-20.79-6.43-30.01-1.92-7.92-5.82-17.37-8.51-25.26-4.73-13.91-10.94-30.01-18.96-42.17-.71-1.08-1.97-5.31-2.87-6.8-.73-1.19-3.03-2.69-3.83-3.92-1.78-2.73-3.51-4.81-5.27-7.43-1.67-2.5-2.91-5.26-4.68-7.7-.46-1.88,1.29-2.92,1.11-4.75-.08-.82-.65-1.33-.84-2.13-.31-1.31.37-4.19.15-5.9-.14-1.11-.82-1.67-.96-2.42-.17-.95.24-2.16-.15-3.5-.73-2.52-3.54-5.61-5.13-7.73-6.53-8.71-12.67-10.8-23.18-7.06-5.61,2-9.22,4.84-11.84,10.22-3.37,6.92-3.23,17.75.45,24.46,2.18,3.97,5.59,6.86,9.82,8.33ZM370.96,172.7c.19.89-.24.57-.66.83-2.04,1.23-5.65,1.52-8.03,1.51.79-1.32,7.99-3.09,8.69-2.33ZM336.37,198.77c.11-.17.3-1.3.83-.66.31.38-3.58,6-4.15,6.72-.28.35.01.84-.86.63,1.28-2.3,2.74-4.49,4.19-6.69ZM299.35,254.02c-1.18,3.04-3.88,5.95-5.28,8.93-.63.07-.26-.68-.18-1.02,1.17-5.12,3.45-10.69,6.37-15.02.26.28.68.52.79.91.09.31-1.41,5.46-1.7,6.2ZM313.08,236.66c-.51.93-3.66,5.18-4.46,5.23-1.11.06.7-2.53.89-2.79.23-.31.67-.47.81-.67,2.46-3.5,4.01-6.68,5.79-10.43.91-1.93,3.62-4.75,5.04-6.49-.53,3.29-3.47,5.82-5.08,8.46-1.23,2.02-1.87,4.66-2.99,6.7ZM357.59,248.24c.21-.71,1.39-1.63,2.01-1,.4.41-1.22,1.54-2.01,1ZM364.87,248.5c1.35.36,3.69-.34,3.75,1.08h-4.85c-.09,0-.94-1.15-1.5-1.01,1.07-1.61,1.52-.36,2.6-.08ZM378.31,262.62c-1.51-.26-4.19.36-5.52,0-.12-.03-.8-.7-1.43-.92-.86-.3-1.92,0-2.39-.24-.41-.2-.68-.86-1.01-1-.38-.16-1.18.27-1.8.16-.27-.05-.23-.62-.63-.78-.82-.34-4.28-.93-4.28-2.06l.52-.84,1.67.71c1.03.09.77-.58.99-.65.67-.23,3.21.65,3.95.95,2.62,1.06,5.28,1.98,8.27,2.82.64.18,2.03,1.01,1.66,1.86ZM430.1,182.2c.18-.34-.18-.64.7-.48.1.14-.03,1.96.15,2.52,1.28,3.98,1.57,3.51,1.5,7.99-.04,2.61.43,7.08.01,9.37-.16.88-1.03,1.15-1.84,1.17-1.12-1.6.79-2.71.84-2.91.22-.84-.18-2.3.01-3.26l-1.02-.19c.21-2.04.59-4.49.35-6.53-.08-.65-.78-.43-.95-1.38-.29-1.6-.49-4.93.23-6.31ZM371.29,76.76c-1.34-.52.25-2.37,1-2.67l-1,2.67ZM346.77,65.68c-1.15-1.88-.66-1.96-.97-3.42-.08-.37-.66-.64-.84-1.13-2.03-5.5-.67-11.54,2-16.57.19-.35.22-1.13.29-1.2.24-.2,1.09.15,1.57-.11.69-.38,2.48-2.84,3.44-3.41,2.51-1.47,4.45-1.08,6.82-1.53,1.12-.21,1.59-1.24,3.69-.85.52.1.77.91,1.41,1.12.62.2,3.17-.16,4.25.09,1.11.26,1.64,1.29,2.44,1.58.42.15,1.34-.01,1.42.08.08.09-.1.81.09,1.24,1.16,2.56,3.89,3.19,5.47,7.78.43,1.26,1.65,4.85,1.8,6.17.25,2.11-.82,3.8-.67,5.86l1.31-3.19c.1-.62.42-7.94.28-8.34-.09-.26-1.31-.57-.59-1.84.7.11.41.74.6,1.23,2.18,5.45,1.16,8.62-.25,14.01-.22.83-.79,3.85-1.44,4.41-.21.18-1.63.59-2.33,1.1-1.48,1.07-2.72,3.15-4.3,4.14-.67.41-5.32,2.67-5.9,2.79-1.19.25-2.36-.29-2.9-.18-.4.08-.64.78-1.38.92-1.52.3-3.69-.25-5.3.05l-.55,1.3c-.28.27-2.92-1.47-3.35-1.82-1.6-1.28-6.5-6.32-7.34-7.87-.41-.06-1.24,0-1.29-.05-.3-.27-.53-1.5.13-1.62.88-.16.95,1.28,1.17,1.67.06,0,.33-.26.69-.16,2.59.68,3.73,5.21,6.67,3.34-2.12-.62-4.96-3.65-6.13-5.56ZM342.88,269.31c-.58-.12-2.14.42-2,1.16l1.8.83c.92-.49.14-1.24.19-1.99ZM314.47,156.81c.25,1.23,2.52-.27,2-1.16-.68-.22-2.16.37-2,1.16ZM278.96,283.44c.72-2.3.82-5.47,1.65-8.05.5-1.55,1.25-3.19,2.09-4.59l-1.83-1.17c-2.12,4.9-3.54,10.05-4.82,15.23-.39,1.57-1.3,4.2-1.36,5.66-.03.69-.2.96.66.83.39-2.13,1.07-4.49,2.2-6.33.36-.58,1.22-.97,1.41-1.6ZM350.9,256.61c.09.96.78,1.36.66,2.47-.29,2.85-2.35,5.24-1.6,8.96.44,2.2,2.16,4.11,1.11,6.97.58.86,1.58.67,2.5.65.07-.96-.93-1.52-1.18-2.32-1.22-3.87,1.35-8.41,1.76-12.31.28-2.67-.62-3.78-3.25-4.42ZM317.84,168.45c.76,0,1.38-.62,1.38-1.38s-.62-1.38-1.38-1.38-1.38.62-1.38,1.38.62,1.38,1.38,1.38ZM357.13,282.3c1.96,1.33,7.1,2.15,9.48,2.71l-11.03-7.69c.13,1.56.13,4.01,1.54,4.97ZM346.55,265.3c-1.27.18-3.32,4.7-1.83,5.01,1.35.28,2.2-4.01,1.83-5.01ZM336.53,170.69c.17-2.58-3.13-1.03-2.67.84.31,1.27,1.87-1.33,2.67-.84ZM347.22,273.65c.44-.41-.87-1.43-1.33-1-.44.41.87,1.43,1.33,1ZM314.8,217.5h-1s0,1,0,1l1-1ZM310.13,219c-.05.17-.09.55.16.49l.83-.67-.33,2.34c2.01-1.04,1.03-3.25,1.49-5.02.35-1.37,2.17-2.85,2.62-4.73.3-1.25.27-2.35.23-3.61l-1.6,4.58c-.48,2.08-2.88,4.91-3.4,6.63ZM331.84,172.2c1.71,6.75.44,13.74,1.51,20.55.7-.75,1.55-1.81,1.91-2.77.82-2.17.41-9.64-.16-12.02-.48-2.02-1.97-3.93-2.6-5.93l-.67.17ZM325.5,203.79c.66-.18.75-.71.66-1.34-.66.18-.75.71-.66,1.34ZM326.53,176.21c.05,1.05-1.05,3.17.97,3.51.7-3.01.35-6.2-.83-9.02-1.15,1.54-.23,3.77-.14,5.51ZM322.82,170.36l1.67-.5c-.08-1.99-2.06-1.34-1.67.5ZM320.82,192.25c0,.15-.63,2.8-.72,2.96-.42.69-1.28.56-1.65,1.02-.65.81-.18,4.69-.29,6.06-.36,4.88-1.3,10.43-2.64,15.09l.95.77c.7-2.8,2.76-4.97,4.08-7.46,5.08-9.59,7.14-21.25,4.87-31.74-.19-.9-2.63-7.65-2.97-7.89-.37-.26-.97-.26-.97.46,0,1.13.59,1.94.68,3,.25,2.84-.19,5.99,0,8.86h-1.34s0,8.86,0,8.86ZM321.13,195.24l1.02-.15c.43.42-.83,9.69-1.24,10.97-.18.56.15.88-.76.73l.72-11.15.26-.4ZM327.83,201.78c.58-1.88,2.27-3.48,2.25-5.58-.01-1.06-1.13-1.44-1.24-2.44-.6-.43-1.28,4.42-1.33,4.85-.11,1.06.24,2.16-.34,3.17h.66ZM316.85,191.21c.12,1.26.55,2.75,1.13,3.88,1.49-2.68.65-6.19.84-9.19.25-4.08,1.38-9.41.67-13.38-.54-3.04-1.27.25-1.69.66-.21.21-.89.57-1.15.51l-.85-2.34c-.46-.09-.8.12-.94.56-.55,1.72.95,6.52,1.24,8.68.48,3.61.42,7.1.75,10.61ZM334.31,234l1,1.67.43-.26-1-1.67-.43.26ZM160.03,151.97c-1.79-.04-3.77.54-4.67,2.17l1.33,1c-.89.51-5.75,4.23-5,5.18,1.99-.77,6.79-2.34,7.02-4.85.1-1.03-1.04-.06-1.01-.83l1.27-.07,1.07-2.6ZM161.7,153.31l2.7-1.17-.03-.83,1.34.33-.33-.66,1.34-.68c-1.95.11-4.74.7-5.01,3.01ZM153.34,153.65l-3.12.31-.56,1.7c.34.33,3.98-.7,3.67-2ZM166.71,155.31c.25-.25-.68-1.23-.75-1.26-.52-.23-3.62.61-3.27,1.93l4.01-.67ZM143.44,156.01c-3.76-.89-2.88-.46-4,2.28-.23.56-1.17.96-.8,2.04,3.27-1.13,6.66-2.59,8.68-5.52-1.58-.8-3.43-.69-3.88,1.2ZM62.56,183.08c.66.92,2.89,5.45,3.74,5.62,1.79.35,1.73-2.43,1.85-2.58.07-.08.85-.15,1.3-.53,1.73-1.46,3.12-3.49,4.65-5.05,1.2-1.21,5.48-4.78,6.04-5.66.27-.41.41-.67.32-1.19h-5.52c-.22,0-1.76-.58-1.84-.84l.34-.99c3.19-.98,6.85-.49,10.1-1.26,4.2-1,13.05-9.45,17.39-12.36,4.32-2.9,13.4-6.85,16.6-9.81,1.12-1.04,1.41-2.76,2.54-3.82.66-.16,1.16,1.35,1.93,1.28,1.58-.14,6.98-4.45,9.1-4.95.41-.4.03-.56-.17-.85-.53-.77-1.19-1.33-1.74-2.28-.37-.64-1.47-3.45-1.63-3.56-.12-.08-2.12.85-2.6-.56-.88-2.55,1.43-7.02.95-9.81-.58.09-.57.68-.76,1.08-3.68,7.62-7.08,16.8-12.77,23.33-5.08,5.82-15.56,12-22.68,15.1-1.19.52-5.44,2.25-6.44,2.29-.81.03-.51-1.25-1.62-1.32-1.51-.09-5.33,1.73-7.06,1.67-.73-.03-1.16-.59-1.97-.71-4.79-.68-11.14.28-16.36-.35-2.3-.28-3.89-1.43-5.73-1.95-2.56-.73-5.24-1.11-7.84-1.69l4.86,3.99c6.06,4.9,10.43,11.37,15.01,17.75ZM62.09,176.2l4.34,6.19c-.76.08-1.27-.2-1.81-.69-1.19-1.08-3.99-4.63-5.01-6.02-.69-.94-1.61-2.16-1.86-3.32l4.35,3.84ZM57.4,169.69c.03,1.37-1.7,1.37-1.67,0h1.67ZM129.28,161.51l-2.68,5.84c1.7-.42,2.32-2.22,4.34-1.67l-1.67,1.84c1.24.53,5.52-2.86,5.68-3.68.24-1.24-.34-2.83.67-4.02l-.67-.32.67-.5-6.34,2.51ZM190.78,149.97c-1.57-.01-3.92.07-5.01,1.33,1.7-.29,3.88.39,5.01-1.33ZM196.13,148.96l1.33-.84-.83-.83c-.79.59-.77.77-.5,1.66ZM171.06,150.47c.46,1.07,2.82.1,3.67,0l3.68-2.17c-1.92.44-5.23.47-6.93,1.25-.49.22-.68.3-.42.91ZM184.77,147.46l1.46.49,2.89-.98-4.34.5ZM359.59,223.51c.34-.29.34-1.52-.49-1.33-.84.19-.12,1.87.49,1.33ZM60.78,276.7c-.5,1.71-1.3,2.56-3.19,2.28-.31-.05-4.33-1.52-4.66-1.7-.92-.5-1.17-1.47-1.65-1.86-1.46-1.18-4.75.11-4.61,2.41.13,2.2,3.24,1.63,4.73,1.99,1.66.4,3.76,1.04,5.32,1.7,1.22.52,9.66,5.6,10.03,5.17-.63-1.37.27-4.19-.05-5.12-.27-.79-2.78-1.29-3.49-2.2-.86-1.09-.12-3.13-2.44-2.66ZM465.29,306.85c-2.7-5.32-4.87-4.34-9.89-5.15-7.98-1.29-19.27-3.71-27.11-3.31-1.63.08-3.75.72-5.35.69-9.16-.16-22.24-5.77-30.84-8.97-5.68-2.12-15.84-5.09-20.6-8.48-3.06-2.18-8.88-7.24-11.38-10.02-.32-.36-.6-.78-.78-1.22.02-.99-.34-1.96-.42-2.93-.24-3.02,1.06-6.31-1.84-8.18-.26,3.74-1.28,9.26,1.22,12.49.61.79,1.39,1.03,1.96,1.71.33.4,2,3.02.83,2.85-1.25-.17-1.83-1.43-2.84-2.01.8,3.2,2.47,5.43,5.84,6.02l.34-.66c-.36-.22-1.19-1.65-.34-1.67.32,0,4.31,3.23,5.21,3.81,3.24,2.06,6,3.56,8.98,5.73,9.05,6.59,21.38,3.48,29.95,11.84,12.38-.67,24.64,3.46,36.77,4.35,1.44.11,6.74-.36,7.43.43.26.29.09,1.05.76,1.41.53.29,1.49.2,2.19.48.96.39,1.92,1.54,2.66,1.68,1.04.2,2.52-.07,3.63-.03l1.04-1.29c2.2,1.61,4.03,5.81,2.65,8.33-.49.9-1.27.79-1.77,1.25-3.58,3.24-7.55,6.19-11.64,8.9-2.2,1.46-2.65,1.43-5.01,2.51-3.66,1.67-6.39,3.5-10.38,5-10.73,4.03-20.42,6.23-31.63,8.15-2.6.44-5.14,1.25-7.77,1.59l-2.13.04,18.46-4.1c8.38-1.6,13.85-5.62,20.76-9.66,4.24-2.48,8.68-3.7,12.6-7.13,1.26-1.11,2.51-3.47,3.55-4.14,1.44-.92,4.35-1.08,6.04-1.98,1.86-.99,2.9-3.4,5.46-2.88l.32-1.87c-2.05-.6-3.42.59-4.92.93-3,.68-6.54,1.27-9.6,1.43-17.69.91-35.14,3.15-52.83,4-4.65.22-10.55,1.14-14.7-.7-1.08-.1-.64.63-1.32.72-2.09.27-11.04.1-13-.37-5.1-1.23-12.77-1.53-18.42-1.31-1.64.07-2,1.29-4.47.74-2.87-.65-4.83-.35-7.18-.84-1.28-.26-2.91-1.73-4.41-1.62l-33.6,2.37c.44,1.06,1.92.22,2.81.33,3.83.48,7.8,1.91,11.41,2.66,2.56.53,6.6.05,9.33.37,4.58.54,11.39,3.25,15.92,2.18.85-.2,1.44-.86,2.22-1.12,3.61-1.21,9.2-2.01,12.95-1.39,1.1.18,1.64,1.29,2.97.99.26-.06.08-.61.7-.7,1.9-.25,5.68-.08,7.72.01.79.04,1.35.62,1.94.6.95-.03,2.75-1.09,3.76-1.24,2.87-.42,14.43,1.02,16.95,2.4.36.2.66.43.91.76-4.58,3.04-9.92,2.6-15.22,2.52-3.04-.05-9.49-1.04-12.21-.2-.52.16-.95.63-1.31,1.02l1.99,1.34c0,.28-4.26,2.5-4.85,2.53-1.07.05-1.94-.6-3-.69-3.22-.29-6.82-.1-10.03-.34-7.14-.54-14.01-2.27-20.82-3.92-4.06-.98-7.63-1.06-11.33-1.51-.53-.06-.92-.55-1.6-.6-4.09-.28-7.79,1.14-11.65.61-.92-.13-.86-.85-1.14-.92-2.41-.54-6,.54-8.62-1.01-.37.51.9.55,1.33,1.02.27.3.29.79.5,1.1.23.32.79.05.67.56-5,.85-10.02-.56-15.04-.33l.67-.66c-2.98.16-5.26-2.18-7.79-3.41-5.31-2.57-8.81-3.42-14.34-5.05-2.1-.62-4-1.85-6.28-1.91-.15-.2.61-.79.92-.91,2.92-1.14,12.09.26,15.21,1.32,2.03.69,4.26,2.07,6.26,2.93l-1-2.5,2.35-.68c-.77-2.1-1.96-4.26-1.27-6.61.29-.98,2.02-1.36,2.23-2.14.21-.78-.31-2.56.2-4.12.65-1.98.95-2.52,1.51-4.77.04-.16,1.45-1.03,1.34-1.91l-1.01.22c-.03,1.74-1.75,2.14-2.9,3.08l-2.11-2.47c-.78-.57-.64,3.14-.72,3.63-.11.68-.44,2.47-.69,2.98-.4.84-1.31.63-1.63,1.13-.76,1.19-1.31,8.86-2.48,9.14-2.62.62.31-8.83.35-9.66.05-.94-.99-3.02-.18-4.44.23-.41.8-.45,1.09-1.02.31-.59.23-1.53.61-2.07.33-.48,1.72-.94,2.49-1.86,1.88-2.23,1.24-3.6,1.84-5.81,3.08-11.35,6.61-21.23,13.02-31.14,2.85-4.41,6.78-8.67,9.32-13.08.26-.45.39-.93.39-1.45l.5.67c2-1.47,1.96-3.83,3-6.03,1.23-2.59,3.18-4.8,4.48-7.56,4.5-9.54,9.09-20.44,11.91-30.54,1.06-3.79,2.78-8.33,2.47-12.16-.14-1.72-.83-5.36-1.39-6.97-.22-.63-1.73-3.53-2.09-3.93-.43-.47-.56-.52-1-.02-.64.97,1.7,5.84,2.09,7.29.52,1.97.76,3.92.99,5.94l-.89.49c.21-.88-1.35-7.31-2.67-6.35-1.46,2.28-.41,3.81-.34,6.16.07,2.18.18,8.71-1.05,10.37-.39.53-.78.29-1.29.52l.34-1.67.66,1c.96-1.67-.38-1.98-.64-2.6-.75-1.78.13-5.43-.02-7.61-.46-6.69-3.55-11.26-4.88-17.19-.49-2.2.66-4.1-2.83-3.69.37,2.52,1.94,4.75,2.52,7.34,1.65,7.4,1.61,15.45,1.52,22.91-.02,1.2-.64,2.53-.36,3.84.68.13.8-.31,1.02-.81.68-1.51.62-3.68,1.65-5.2.56,0,.64,1.12.66,1.5.17,2.36-.42,7.06-1.71,9.02-.4.61-.95.04-1.23.72-.94,2.28-1.46,5.98-2.4,8.65-.98,2.78-5.13,13.16-7.68,14.05-.45.16-.89.19-1.35.15-.47-.45,5.01-10.18,5.6-11.61,1.81-4.4,4.48-13.03,4.42-17.66-.02-1.64-.58-3.18-.66-4.66-.53-9.4-.59-16.86-3.85-25.9-.99-2.74-2.33-1.94-4.85-2-.92.87,4.34,5.82,3.51,7.36-.77,0-1.28-.95-2.01-1-.53-.04-1.08.4-1.59.28-.49-.11-1.25-1.25-1.74-1.65-.29-.24-.74,0-.78-.04-.53-.51-.39-3.81-1.72-4.45l-3.68-.17c-.11,1.71.1,3.73.94,5.25.68,1.23,2.42,2.51,3.22,3.8.96,1.57,3.12,7.79,3.87,8.5.22.21.6.34.68-.01-.47-.94-.21-2.01-.42-2.93-.4-1.72-3.47-8.03-3.22-9.05.06-.23.48-.66.62-.56,1.79,3.76,4.18,7.81,4.35,12.03,1,.33.73-1.21.68-1.85-.15-1.87-1.24-3.53-.68-5.5,1.29.49,2.46,2.37,2.86,3.66,3.24,10.61.58,21.01-2.1,31.36-.45,1.73-1.22,3.39-1.79,5.08l-.63-.31-3.19,13.7c.42-.43.95-1.2,1.67-1,1.43.4-.73,3.29-.99,4.02-.65,1.79-.97,3.75-1.78,5.57-.28.62-3.48,6.8-4.41,5.78.28-.81-.34-2.86-.15-3.36.14-.38,2.08-2.19,2.56-3.09.35-.66.89-2.14.77-2.91-6.02,9.1-12.76,15.72-23.06,19.73-.99.38-5.5,1.52-5.78,1.75-.23.19-.35,1-.75,1.43-1.79,1.96-2.99,2.87-5.46,3.9-2.81,1.17-5.42,2.27-8.21.73-.31-.17-1.54-.87-1.37-1.29,2.99-3.51,3.45-.71,5.93-.23,1.68.32,8.04-1.94,8.44-4.28-7.16-.27-14.62-.75-21.53-2.7-4.65-1.31-11.13-4.58-15.69-6.71-6.08-2.83-17.46-13.72-18.86-20.26-1.1-5.14-1.17-10.67-1.1-15.98.14-9.68.84-17.06,4.64-26.12.5-1.19,1.74-2.93,2.03-3.99.17-.62-.16-.5-.63-.46l-2.35,4.01c-.61.07-.34-1.12-.26-1.43.37-1.36,3.27-5.71,3.26-6.09-.02-1.2-1.64.62-1.83.83-5.76,6.27-9.99,22.23-9.88,30.59.05,4.19,1.63,9.67,3.11,13.63.91,2.42,2.44,3.8,1.93,6.76-2.1-.16-3.25-2.22-4.78-3.62-.24-.22-.51-1.14-.57-.06.43,1.95,1.08,4.2,2.09,5.93.95,1.63,2.72,2.68,2.92,4.6-2.52.21-3.16-1.77-4.33-3.18-.33-.4-.99-.57-1.35-.99-.93-1.08-2.28-6.41-1.52-7.54.62-.92,2.19.58,1.85-.48-.36-1.13-1.08-1.82-1.3-3.39-1.01-7.4-2.01-15.3-.33-22.65.61-2.67,6.58-17.5,8.14-18.94.67-.62,1.98-1.04,2.74-1.79.53-.54,1.21-2.4,1.77-3.05.69-.8,2.45-1.88,3.31-2.7,1.45-1.39,2.48-3.27,4.55-4.14l-.51,2.16c.47,2.27,5.02-3.49,5.78-3.93,1.03-.6,7.64-3.51,8.46-3.58,3.27-.3,6.3-.03,9.91-.76.84-.17,1.87-.89,2.46-.92.75-.03,1.1.62,1.63.66.6.04,2.91-.88,4.03-.98,2.47-.22,4.74.41,7.18.33l-2.85-2c-5.17.44-10.4,1.19-15.53,0-1-1.34,7.38-1.3,7.85-1.34,3.83-.27,10.92-1.36,14.37.01,1.27.51,2.43,1.46,4.01,2.01,2.45.85,5.13,1.1,7.53,2.17,1.45.64,2.5,1.8,4.01,2.17.09-.62,0-.99-.32-1.52-.59-1.02-3.14-3.15-3.91-4.45-4.39-1.2-8.97-1.65-13.49-2.05-.17-.14.97-1.91-.22-2.29h-2.1s-.2.97-.2.97c-1.52.13-3.62-.71-5.02-.65-.69.03-1.21.71-1.97.64-.81-.08-1.56-1.58-2.68-1.36-8,.12-16.08-1.1-24,.42-.7.14-1.26.77-2.1.9-1.39.23-2.81-.08-4.16-.32l1.34-3.34c-6.45.62-12.73,1.21-19.14,2.42-1.67.32-4.14,1.41-5.86,1.5-1.27.07-2.91-.6-4.22.39-.34.26-.11.87-.23.98-.15.14-1.17.05-1.65.2-5,1.55-10.85,3.63-15.59,5.81-1.22.56-7.22,3.61-7.65,4.4-.5.91,1.11,1.31,1.52,1.85-1.03,2.25-5.67,3.2-6.7,4.66-.59.83-.19,2.51-1.48,3.19l-1.34-1.66c-.54.58-1.35.86-1.85,1.49-.23.29-2.35,4.38-2.51,4.84-.29.78.13,1.76-.66,2.35-.83.15-.48-.67-.48-1.18,0-1.44.74-2.16.98-3.5-4.45,1.8-4.6,6.5-6.63,10.25-1.49,2.76-7.94,10.65-7.74,13.29.04.5.49.92.51,1.35.18,4.01-2.84,8.87-2.87,12.4,0,.99-.43,1.12-.21,1.64.14.33.12.7.03,1.05l-.32,1.14-.99-1.33-.84-.18c1.04-3.91-1.09-7.33-1.33-11.36-.62-10.46,4.93-15.16,8.79-23.31,2.38-5.03,2.19-5.84,6.76-9.61,2.25-1.85,7.03-4.34,8.7-6.01.56-.56.55-1.39,1-2.01,1.39-1.91,4.27-2.91,6.28-4.08l7.24-2.95c-1.62.12-3.22.61-4.75,1.09-4.05,1.28-6.36,2.5-9.86,4.52-.68.39-3.79,2.07-4.29,2.07-.45,0-.55-.19-.81-.49.32-2.4,2.52-2.78,3.62-4.06.54-.63.89-1.92,1.38-2.63-.02-.32-.55-.19-.77-.1-1.41.58-3.48,2.62-5.02,3.34-4.25,1.99-6.29,4.19-10.14,6.57-3.28,2.03-6.98,2.86-9.46,5.92-1.71,2.11-3.97,5.46-4.94,7.83-.71,1.75-3.67,8.65-4.86,9.62-.72.59-2.48.25-2.26,2.43-2.18-1.16-.26-2.58.25-3.93,1.24-3.26,2.36-7.06,4.3-10.08,1.55-2.43,8.02-9.31,8.68-11.37.22-.7.05-1.46.23-2.11.34-1.25,1.05-2.41.92-3.76l-.67-.16c.09,1.33-1.47.45-2.02,1.13-1.17,1.48-2.16,3.91-3.2,5.52-8.32,12.96-16.71,26.74-19.11,42.4-.25,1.66-.15,7.2-.74,8.22-.23.4-.85.12-.97.24-.32.32.53,3.33-.93,3.6-2.55.46-.98-5.11-1.15-6.43,2.16-.51.89-1.72,1.11-3.63.48-4.21,3.27-14.9,4.69-19.05.62-1.8,1.94-3.72,2.42-5.28.16-.52-.16-1.09.12-1.85.27-.7,1.01-1.31,1.37-2l-1.48.15-.47-.74c.03-.63,2.73-6.07,3.13-6.25,1.87-.81-.56,2.53-.69,2.99-.16.57-.22,1.1-.16,1.68l2.32-.35c.32-.8-.49-1.6-.52-2.15-.02-.41,2.04-5.07,2.41-5.81,1.26-2.47,3.06-4.83,4.47-7.23.39-1.2-2.99,2.4-3.17,2.52-6.05,3.99-8.59,8.68-12.04,15.02-.59,1.09-5.26,9.97-4.84,10.37l1.86.31c.78,1.11-.92,7.19-1.15,8.92-.46,3.5-.56,7.07-1.14,10.56-.62,3.73-2.21,6.97-1.58,10.96-2.17.11-1.26-2.78-1.71-4.13-.23-.68-1.35-.41-1.59-1.09-.49-1.4,1.29-12.07,1.74-14.23.71-3.41,2.32-6.89,2.4-10.3l-2.17,1.67,2-7.69c-.5.08-.62.63-.84,1-3.24,5.44-6.7,18.31-6.81,24.61-.02,1.42.59,3.55.63,4.98.09,3.29.69,12.69-.06,15.31-.19.66-1.18.89-1.27,1.74-.25,2.42,3.56,8.08,3.67,10.86-1.37-.97-2.9-3.06-3.62-4.57-2.97-6.21-1.69-10.18-2.03-16.33-.05-.88-.85-1.63-1-2.7-.55-3.78.29-13.15.64-17.35.29-3.42,1.6-14.31,3.01-16.96.23-.43,2.21-1.73,2.81-2.62.56-.83,1.03-1.99,1.19-2.99-3.86,3.16-6.83,7.15-9.69,11.2l.66.16-1.83,8.36-.84-.18.67-5.17c-.68-.12-.95.43-1.28.89-2.21,3.08-3.09,6.13-4.15,9.56-1.14,3.7-3.64,7.35-3.5,11.52.2,5.89-.21,12.01-.89,17.93-.56,4.89-.37,11.98,1.19,16.67.26.77,2.56,4.97,2.27,5.27-.69.14-.78-.34-1.07-.77-1.84-2.73-3.16-7.35-5.13-10.24-.34-5.23-1.33-10.66-1.5-15.88-.11-3.16-.45-7.73,2.65-9.42l3.33-15.26-1.74-1.16c-.9.02-1.29,1.25-1.73,1.91l-1.16,11.38c-.81.95-1.47-3.34-1.5-3.84-.07-1.48.31-5.82.52-7.33.27-1.9,1.66-5.57,1.61-7.39-.03-.96-1.05-2.44-1.13-3.5-1.18,2.11-2.4,5.69-2.16,8.16.05.48.57.86.57,1.03,0,.19-1.92,2.21-2.08,3.13-.58,3.41-.33,7.07-.51,10.6-.24,4.55-.99,10.23-.3,14.65,1.1,7.02,2.18,14.13,3.69,21.04.48,2.18.86,4.38,1.28,6.57-1.52-1.37-2.52-3.28-3.4-5.12-3.03-6.35-3.9-14.12-3.95-21.12-.03-3.89-.1-8.44.59-12.12.35-1.89-.42-8.53-.59-10.95-.03-.45-.16-2.02-.66-2.17-.77,2.01-1.43,4.17-1.93,6.26-.29,1.21-.16,2.85-.5,4.18-.13.51-.7.89-.84,1.49-.29,1.23.38,2.76.23,3.23-.14.48-.92.55-1.14.88-1.15,1.79,1.87,7.91,2.14,9.89.88,6.39-1.28,22.03,4.88,26.21,1.17.79,2.94.5,3.35,1.33.23.47.57,4.78.52,5.54-.04.57.03,1.11-.52,1.48-.36-2.41-2.36-1.56-3.7-2.32-.67-.38-1.19-1.64-1.8-2.21-.91-.84-4.02-2.75-4.3-3.74.29-2.64.96-5.26.62-7.96-.13-1.07-1-2-.99-2.67,0-.56.57-1.07.63-1.69.1-1.04.34-3.44.31-4.35-.03-.84-1.92-3.3-2.12-4.45-.09-.53.24-1.1.1-1.79-.13-.64-.81-1.26-.89-1.84-.14-.95,1.22-2.93.93-4.91-.08-.54-.48-.97-.56-1.45-.16-.85-.2-2.52-.5-3.18-.72-1.58-1.97.32-2.28,1.25-.28.81-.58,2.82-.65,3.69-.16,1.99,0,4.31,0,6.35,0,.06-.54.6-.66.5-.19-.83-.62-2.08-1.08-2.77-.2-.3-.4-.9-.77-.25-.79,1.41.55,4.25-.66,5.69-.88-1.07-2.77-8.03-2.17-8.69.39-.04,3.02,1.44,2.66.18-.39-1.38-1.81-2.99-3.33-2.19l-.28-6.82c1.13-1.63,2.19-.26,3.59-.22l1.72-4.8c-.11-.43-2.15-.37-2.69-.71-.53-.33-.48-1.65-1.69-1.01-1.26.67-1.84,8.58-2.04,10.34-.35,3.08-1.3,8.42-.97,11.42.18,1.66,1.44,3.6,1.01,5.5l-1.67-1v-5.85c0-.06-.54-.6-.66-.5-.19.87-.41,1.73-.57,2.6-.91,4.91-1.35,9.93-2,14.66-.15,1.09-.26,2.2-.42,3.3-.21,1.52-.04,3.39-.36,4.99-.1.48-.23.89-.82.85-1.91-.45.01-9.92-.17-11.7l-.67,3.17c-.45.55-.36-.39-.33-.66.85-7.16,2.45-14.25,3.37-21.4l-.7-4.84c-.19,2.24-1.28,4.24-1.78,6.41-2.5,10.8-3.09,21.85-3.55,32.88-.04.89-.08,1.74-.11,2.56l-.26.59s-.97,16.35,2.38,28.66c0,.07-.02.15-.02.26.15.46.33.91.49,1.36.6,1.92,1.32,3.72,2.18,5.29l.04.07c6.72,13.91,18.62,22.78,33.55,28.22,10.59,3.86,23.01,7.65,33.88,10.58,22.12,5.95,43.78,9.72,66.33,13.56,12.12,2.07,24.07,3.03,36.53,3.25,1.74.03,28.19.9,39.11.7,6.92-.13,13.96-.76,20.69-1.7,1.62-.23,3.6.26,5.29-.06,1.97-.37,1.72-.53,4.09-.66,5.76-.3,11.17-.73,16.73-1.59,2.48-.38,5.87-.5,8.34-.66.77-.05,1.82-.23,2.59-.38,5.4-1.09,12-1.34,17.78-2,4.23-.48,8.7-.9,12.97-1.74,7.49-1.47,15.01-2.29,22.53-3.82,10.48-2.13,21.07-5.76,31.47-8.71,2.79-.79,6.36-.78,8.85-1.52,3.24-.95,5.11-1.95,8.79-2.57,12.3-2.09,25.38-4.34,36.23-10.9,3.56-2.15,7.98-3.97,11.07-6.32,3.33-2.54,7.2-4.63,10.22-7.65,3.28-3.27,2.06-6.1.18-9.8ZM444.17,318.78c.29.29-1.82,3.92-3.01,3.34-.23-1.91,1.31-3.03,3.01-3.34ZM279.85,246.46l.41.27-2.38,3.65-.41-.27,2.38-3.65ZM267.61,281.45c.54-.93,1.14-2.32,2.39-2.12-.79,2.68-1.49,5.75-4.01,7.35.09-1.82.7-3.68,1.61-5.24ZM262.98,291.37v.66s-.83.33-.83.33l-.49-.49c.35-.52.72-.58,1.33-.5ZM414.17,334.75c-2.77,1.08-12.08,3.93-14.72,4.01-1.37.04-1.65-.81-2.37-1.76,0-.79,6.63-3.31,7.77-3.89,3.88-1.97,11.67-7.21,15.77-7,1.06.06,2,.32,2.5,1.36l-3.01,1.34c1.94.03,5.57-2.87,5.86.35-4.04,1.53-7.79,4.04-11.79,5.59ZM427.11,320.79c.85,3.96-1.87,3.22-4.43,3.75-1.39.29-3,1.01-4.59.92,2.59-2.15,5.46-4.41,9.01-4.67ZM413.08,324.13c-.48,1.54-1.9,2.01-3.26,2.59-2.68,1.16-5.84,2.02-8.78,2.08.35-.9,2.15-.52,2.79-.97.45-.31.28-1.4.61-1.64.2-.15,1.27-.18,1.79-.38,2.33-.9,4.28-1.47,6.83-1.69ZM290.19,331.85c8.86.16,17.18,1.83,26.46,1.32,9.32-.51,17.83-3.42,27.38-3.34,3.79.03,7.66-.36,11.38-.35,1.74,0,4.48,1.25,1.92,2.25-3.86,1.51-10.19,1.11-14.3,1.41-3.27.23-6.8,1.04-9.72,2.48-.09.04-.19.45-.54.64-3.15,1.66-17.02,1.62-21.47,1.91-5.26.35-11.54,1.56-16.72,1.33-.72-.03-4.17-.5-4.17-1.16l.54-.46,10.65-.38,2.51-.66c-5.46.38-10.57-1.46-15.67-3.05l-.06-1.43c.09-.31,1.44-.51,1.82-.51ZM262.85,325.49c2.99-.39,6.29.05,9.16-1.03-.6,1.82-2.81,1.93-4.18,3l.51-.99-5.68.33.67-.66-2.67.33c.21-.57,1.69-.91,2.2-.97ZM261.83,345.21c1.42-.2,2.78-1.46,5-1.68,6.59-.65,13.45-.46,20.05-1.01,1.62-.14,11.68-1.79,12.2-1.33.49.42-2.49,2.54-3.19,2.65-1.97.31-4.57-.13-6.66.02-6,.45-11.99,2.07-18.04,2.35-5.29.25-9.82-.67-15.13.24-1.47.25-2.99.25-4.44.74l1.14-1.69c2.81-1.58,6.08.12,9.07-.3ZM259.13,349.19c.69,0,1.45.46,2.19.35l-.33.66,1.15.33.48-1.17c3.69-.79,7.51-.23,11.23-.49,4.51-.32,8.78-1.43,13.14-2.24,5.4-.99,10.96-1.18,16.45-1.43-3.3,2.88-7.57,2.25-11.53,2.67-8.68.93-16.93,2.96-25.44,4.32-3.45.55-8.01-.19-11.01.36-.77.14-1.06,1.48-2.36,1.66-1.66.24-4.83-.52-7.01-.33-2.1.18-4.3,1.15-6.34,1.35-3.47.34-7.05.13-10.53,0-.28-1.15,1.62-.57,2.46-.71,4.34-.72,8.91-1.37,12.83-2.88,3.29-1.26,11.06-2.45,14.6-2.44ZM247.28,347.19c-.08-.58.76-.31,1.16-.33.94-.04,1.9.02,2.84,0,.08.58-.76.31-1.16.33-.94.04-1.9-.02-2.84,0ZM251.79,343.18c-1.83.17-3.48-.52-5.35-.33-1.23.12-2.43.78-3.71.95-2.7.36-6.47-.09-9.33.04-.95.04-1.86.46-2.83.34.3-.76,1.11-1.07,1.78-1.39,4.02-1.97,16.61-3.56,20.62-1.78,2.28,1.01.48,2.02-1.17,2.17ZM134.75,333.86c1.01.58-.07,1.12-.71,1.24-4.48.82-13.27-5.06-18.34-5.92-1.03-.17-2.13.06-3.23-.12-.58-.09-6.74-2.29-5.59-3.26,1.42.21,2.76-.45,4.17-.35,1.18.08,2.25.83,3.38.99,1.58.21,3.37-.11,4.98.03,2.17.19,4.4,1.15,6.7,1.33,2.29.18,4.74-.17,7.03,0,3.21.22,6.22,1.6,9.44,2.26,5.85,1.2,17.24,1.72,22.07,3.67,3.41,1.38-2.25,1.72-3.61,1.44.88,3.67-5.44,2.4-7.15,1.28-4.01-2.63-9.66-3.38-14.42-4.95-1.5-.5-2.65-1.36-3.9-1.78-2.73-.93-5.01-.17-7.81-.21-1.4-.02-3.08-.94-4.16.15,2.48,3.41,8.28,2.57,11.16,4.21ZM180.82,313.87c-2.21-.61-8.72-1.23-10.22-2.41-.36-.29-.56-1.4.29-1.38,2.03.03,4.35.79,6.35,1.01,2.82.31,6.42-.13,9.09,1.27,1.02.54,1.4,1.45,2.68,2,3.91,1.7,10.06.82,14.3,1.08,2.48.15,5.21.92,7.67,1.02,4.39.16,9.27-.82,13.69-1.01,2.14.25,2.18,2.96,2.54,4.67-2.01-.45-3.26-.04-5.1.74-2.4,1.02-1.05.43-3.42.56-9.62.53-18.41.74-28.09.38-1.43-.05-2.96-.63-4.5-.34.15.49.67.84,1.1,1.07,1.53.79,5.23,2.32,6.85,2.51,8.07.98,17.21.42,25.16,2.25,2.91.67,3.39,2.25.17,2.54-3.34.3-11.95-2.08-15.98-2.77-.96-.16-1.09-.96-2.5-.34-2.12.93-1.5,1.79-4.9,1.38-3.21-.39-10.35-2.13-13.32-3.39-2.85-1.21-1.6-1.14-3.08-2.61-.98-.98-11.27-3.25-13.24-2.8l-13.35-3.2c1.01-1.57,3.47-.69,5.11-.82.42-.03,1.87,0,1.91-.51-3.02.31-5.7-1.17-8.42-2.11-2.04-.7-4.04-.79-5.95-2.24l.17-.66c2.09-.22,4.7.3,6.71.03.58-.08.39-.39.66-.72l5.34,2.27c.41-.03.83-1.06,1.37-1.17.39-.08,4.38.88,5.15,1.09,5.75,1.52,8,3.98,14.55,3.53.74-.05,1.43-.27,2.16-.35.08-.48-.59-.47-.93-.56ZM213.77,291.61c.41.18.99.17,1.08.75-2.6.76-4.84-.34-7.25-1.28-.35-.14-1.16-.28-1.11-.72,2.31-.62,5.11.29,7.27,1.24ZM207.83,283.02c1.04-.18,6.98.43,6.68,1.83-.11.52-.95.54-1.43.45-.62-.13-3.43-1.21-4.18-1.52-.42-.17-.99-.18-1.08-.76ZM213,302.41l.35-1.01,1.34.66c.59,1.17-1.09,1.15-1.69.35ZM174.55,332.79c-.8.11-.32,1.19-2.99,1.02-.98-.06-4.99-.5-3.36-1.95.97.37,2.42.66,3.18-.21,0-.17-1.65-1.18-1.99-1.35-1.35-.67-7.1-2.15-8.56-2.17-1.16-.02-1.82.71-2.98.71-4.56.03-10.49-2.29-14.88-3.54-1.59-.46-7.92-1.6-8.69-2.34-.42-.4-.38-.63-.33-1.17,3.73.62,14.14.55,16.88,3,.61.55.83,1.62,1.75,1.93.82.28,5.8,1.23,6.35.97,4.45-2.07,16.15,2.28,21.69,2.74,2.86.24,8.87-.4,11.14,1.23.66.47,1.02,1.46,1.35,1.66.52.31,4.99.59,5.83.47,1.22-.17,1.12-1,1.68-1.01,2.97-.07,7.55,1.37,11.03,1.39,3.17.01,6.3-1.04,9.54-.35,0,.55-.02,1.53-.42,1.92-.73.73-7.56.4-9.13.4-2.16,0-4.4.23-6.63-.02-6.97-.8-12.95-2.15-20.11-2.62-2.61-.17-8.08-1.01-10.36-.71ZM175.57,337.83c-1.78.22-3.1.3-4.84-.18-.38-.11-1.62-.4-1.68-.82,2.47-.41,4.61-.46,7.02.34.49.49-.04.6-.5.66ZM150.68,319.94c-5.06-1.59-10.01-3.72-14.65-6.23l-.02-.9c.84-.94,4.27,1.08,5.36,1.4,9.19,2.7,17.11,5.48,25.94,9.16.42.17.99.18,1.08.76-3.87.18-7.37-1.61-10.95-2.58-2.23-.6-4.53-.9-6.75-1.6ZM152,307.75c-4.34-1.19-10.85-1.59-12.7-6.35,2.14-.13,4,1.19,5.93,1.92,2.22.84,2.89.52,4.96,2.23.33.27,2.19,1.85,1.81,2.2ZM139.97,305.07c-1.54.51-1.05.04-2.18-.66l-.16.66c-.68.12-.89-.6-1.53-.68-.68-.09-1.29.38-1.63.36-.27-.02-.33-.76-.68-1.02-3.04-2.3-10.25-.26-9.54-6.01.4-.42,4.4,2.55,5.24,2.61.43.03.81-.53,1.31-.61,2.23-.35,3.68,2.55,5.19,3.48,1.26.78,3.15.64,3.98,1.87ZM125.13,305.88c.19.19,1.67,1.7,1.47,1.87l-4.28-2.06-.03-1.08.8-.54c.55.75,1.44,1.21,2.05,1.81ZM124,313.86c2.29.52,6.36,1.62,8.53,2.38.09.03,1.08.47,1.48.63,1.89.78,3.68,1.81,5.29,3.08-4.31.37-8.26-1.95-12.28-3.1-1.06-.3-2.63-.21-4.09-.59-2.21-.58-5.57-1.71-7.03-3.49,2.62.26,5.54.51,8.1,1.09ZM118.57,309.09c-2.53.34-4.32-1.79-6.63-2.39l-.05-1.62c1.89.93,4.15,1.58,5.88,2.82.13.09,1.15.92.8,1.19ZM113.46,314.2c1.86,1.92,1.84,4.15,4.99,4.54,2.2.27,4.98.85,7.05,1.98,1.13.62,2,1.92,3.33,2.68.9.52,4.07,1.49,4.45,2.24.21.41-.06.58-.48.48-1.08-.25-2.27-.9-3.52-1.17-2.88-.63-4.92-1.22-7.71-1.99-1.44-.4-9.64-1.98-9.69-3.34l2-.5c-.21-.47-.77-1.05-1.21-1.29-.45-.24-7.4-2.43-8.13-2.57-2.91-.54-5.69-1.25-8.57-1.79-2.29-.43-5.76-.21-7.84-.85-1.3-.4-1.89-2.08-2.67-2.68-.73-.56-5.96-1.46-7.16-1.53-2.55-.15-6.04,1.27-8.3.61-.3-.09-3.72-3.12-4.9-3.79-.91-.51-2.65-.55-2.69-1.82.97-.19,1.9.4,2.84.36.86-.04,1.63-.82,2.27-.65.6.16,2.53,2.33,3.26,2.79,2.84,1.79,5.66.32,8.46.54,2.41.19,5.59,1.9,8.15,2.23,3.02.38,5.91.12,9.13.91,2.26.55,4.03,2.3,6.48,2.17.77-.04,1.46-.64,2.36-.65.71,0,4.17.55,4.94.75.24.06,2.92,2.13,3.15,2.37ZM69.48,311.81c2.88.09,11.66-.7,13.51,1.6,2.72,3.37-5.59,2.02-6.73,2.02-2.95,0-8.71,1.88-6.79-3.62ZM87.32,318.45c.33.06,1.13.7,1.82.85,2.92.63,3.14-1.2,4.82-1.17,3.41.08,8.3,2.19,11.79,2.61,1.97.24,5.95-.84,4.99,2.4-2.49,1.55-4.51.81-7.05,0-3.35-1.07-4.59-1.12-7.92-1.77-1.33-.26-3.78-1.56-4.46-1.59-.88-.05-1.42.95-2.45,1.2-2.21.54-5.8-.66-7.97-1.44-.59-.21-1.83-.5-2.08-1.09,2.51.34,6.17-.46,8.52,0ZM136.27,336.67c.25-1.49,3.82-.63,5.15-.47,4.79.61,12.23,1.69,16.77,2.95.46.13,1.04.04,1.16.68-2.44-.15-5.1.21-7.52,0-2.78-.25-5.69-1.26-8.7-1.33-1.52-.04-7.44,1.54-6.87-1.83ZM152.01,341.51c6.14.11,12.15.59,18.05,2.34.08.58-.76.32-1.16.33-1.87.06-4.01.73-5.34.68-1.06-.04-9.66-1.95-10.71-2.35-.52-.2-.96-.29-.84-1ZM164.37,341c-.45-.15-1.17.05-1-.66.17-.67,5.97.17,6.84.18,5.16.07,9.01-.66,14.24.47,4.85,1.05,7.13,1.28,12.18,1.52.69.03,1.63.6,2.17.17l-1-1.5c2.58-.24,5.23-.23,7.8-.48,5.41-.51,10.57-1.63,16.1-1.19,2.44.19,5.41.92,7.86,1.34-.17.44-1.76.58-2.21.62-5.43.53-10.79.93-16.34,1.06-1.71.04-5.97-.76-7.2.14-.39.28-.15,1.1-.52,1.2-4.71-.25-9.75,1.45-14.36,1.33-5.64-.15-10.37-2.43-15.4-2.99-3.64-.4-5.37.08-9.16-1.21ZM190.71,348.3c4.39-1.44,12.11-3.06,16.42-1.24.53.22,1.46,1.23,1.85,1.13.32-.08.5-.89.87-1.15.58-.39,12.23-1.76,13.86-1.85,3.53-.21,7.01.35,10.53.33v1.33s-14.13,1.34-14.13,1.34c-5.5,3.74-14.47,2.02-21.12,1.66-1.38-.08-8.65.3-9.2-.83-.29-.59.59-.61.93-.72ZM251.28,335.5l-.15,1.02-.41.26c-2.51-.51-4.35.83-6.44,1.25-2.72.54-5.75.42-8.21,1.8-1.62-1.29-12.69-1.77-13.2-2.33-.38-.41.03-.59.41-.75,3.18-1.3,10.35-.32,14.12-.59,2.11-.15,4.6-.97,6.68-1.02,2.3-.05,4.8.69,7.2.35ZM237.68,327.39c2.47-1.59,6.13-2.05,8.93-1.09-.54.7-3.49,1.84-4.18,1.84h-5.18c-.16-.79.1-.54.43-.75ZM240.09,304.07h8.36c.85,0,3.7.74,4.18,1.67h-7.86c-.1,0-.57-.3-.99-.35-1.83-.2-3.07.08-4.86-.99.34-1.09.92-.33,1.17-.33ZM239.38,310.46l6.22.64c.13.75-.08.67-.68.84-1.14.32-3.22.02-4.49.18-.53.06-.94.63-1.68.68-1.65.11-4.89-1.29-6.52-1.87,2.08-.87,4.82.41,7.15-.47ZM233.9,256.27c-.78.36-6.8-1.08-6.68-1.5,1.02-3.07,5.38-.1,6.68,1.5ZM223.37,306.75c.24-.02.67-.54,1.17-.33.09.07-.18.43-.33.5-1.57.75-2.05-.53-2.52,1.81-.29,1.43,2.12.13,2.85.16,1.28.06,3.16.68,4.01,1.7-3.08,2.07-5.25-.35-8.36-.51l1-1-1.18-.32.17-.67c-1.49.23-2.1-.95-3.33-1.36,0-.82.98,0,1.17,0,1.73,0,3.65.12,5.35,0ZM217.52,280.01c.08.58-.76.31-1.16.33-.89.03-1.79-.02-2.68,0-.62-2.56,2.53-.49,3.84-.33ZM199.48,245.57c4.29,2.44,9.1,4.92,12.16,8.91.16.21.8-.05.53.79-.39,0-.78.05-1.17,0-1.78-.18-8.31-5.68-9.86-7.19-.41-.39-2.16-1.88-1.66-2.51ZM198.69,297.71c.44-.12,5.69.6,6.55.77,1.14.22,7.24,1.5,6.92,3.06-1.65,1.46-3.11,2.33-5.24,1.27-2.3-1.15-.03-2.38-.43-2.74-1.13.23-8.3-.33-8.34-1.5l.54-.86ZM192.96,245.59c.39.19,4.39.89,3.34,2.33-1.4,1.94-6.62-.44-8.04-1.68-.56-.48-.94-1.4-1.66-2.02-1.93-1.67-9.63-7.52-6.78-10.61.86-.93,3.08.93,3.52,1.84.4.82.27,1.54.89,2.45.51.74,7.89,7.27,8.72,7.69ZM196.75,294.81c-.29,1.21-2.76,1.03-3.72.83-1.04-.22-5.67-2.73-6.94-3.42-.37-.2-.91-.37-.99-.85,3.65-.61,7.12,1.53,10.79,1.74l.86,1.7ZM193.45,180.39c-1.98-.58-3.08.1-3.94,1.93-.44.92-.11,3.41-1.9,1.74-1.02-2.26,1.38-3.09,1.99-4.36.24-.5.1-1.15.37-1.64.93-1.71,2.73-2.61,3.99-4.03.6,2.15-1,4.12-.5,6.35ZM189.44,185.23c.53-.67,2.09-1.85,1.77-.25-.59,2.92-3.04,6.26-3.94,9.44-.69,2.41-1.03,5.18-1.47,7.66l1.29.57c-.79,1.72.12,2.3.41,3.58.19.87,1.07,4.52.92,5.02-.23.76-1.25.73-1.81.22-.19-.17-2.38-4.09-2.52-4.5-.74-2.2.82-10.97,1.52-13.56.53-1.94,2.63-6.67,3.84-8.19ZM184.35,219.07c.29.61,1.77,4.36,1.84,4.84.12.76.03,1.72-.6,2.26-2.67-1.72-1.86-5.18-2.17-8.02.41.09.75.55.92.91ZM193.69,190.49c-.98,3.53-2.78,9.08-3.24,12.47-.05.36.29,4.2-.67,3.17-2.03-3.97.73-7.9,1.72-11.81.87-3.48.77-8.14,2.98-10.98.13-.17,1.03-1.3,1.31-.94.3,2.88-1.35,5.39-2.1,8.09ZM223.45,158.98c1.26-1.21,5.06-2.61,6.86-3.66.33-.19.43-.75,1-1.08,2.63-1.53,5.73-1.01,8.61-.92-.36,2.81-2.52,1.73-4.43,2.08-.62.11-3.56,1.14-4.25,1.43-2.81,1.18-5.11,4.7-8.36,3.5-.01-.54.19-.97.58-1.35ZM205.05,166.58c1.31-1.57,2.54-4.1,4.37-5.59,2.23-1.82,2.98-.77,4.84-1.05.8-.12,5.65-2.7,5.94-1.11-1.41,3.3-5.84,4.04-8.58,5.63-1.57.91-5.28,3.33-6.78,4.41-1.46,1.05-2.47,3.19-4.37,3.49-.28-.27,1.72-3.05,2.02-3.42.66-.82,2.06-1.76,2.56-2.37ZM192.03,166.35c2.87-2.19,5.92-4.69,8.76-6.55.87-.57,1.39-1.66,2.69-1.82.47,2.12-.53,1.89-1.33,2.84-1.21,1.43-1.51,1.53-2.87,2.64-1.71,1.41-3.69,2.54-5.32,3.87-2.05,1.67-4,4.18-6.09,5.93-.33.27-.17.65-1.1.42,1.34-2.47,3.01-5.62,5.26-7.34ZM182.89,170.33c.75-1.43,1.76-5.95,3.71-6,.68-.02.91.6.85,1.17-.03.26-2.42,3.75-2.83,4.39-1.01,1.57-2.26,3.02-3.36,4.49-.54.72-.62,1.91-1.51,2.34.03-2.42,2.09-4.36,3.14-6.38ZM179.41,203.79c-.29,1.53,1.08,3.4-.17,4.67-.69,0-.58-3.58-.5-4.18.08-.61-.11-.54.67-.5ZM178.74,203.12c-.71-.39-.93-2.2-.16-2.67.38.83.49,1.81.16,2.67ZM178.41,196.1l.34,4.01c-.72.1-.54.03-.75-.42-.39-.85-1.18-3.65.41-3.59ZM178.39,209.48c.13,1.4.99,2.58,1.34,3.85.57,2.05,1.78,6.82,1.96,8.77.05.56.05.73-.45,1.08-.95.23-2.04-1.92-2.32-2.68-.5-1.32-2-7-2.11-8.28-.09-1.07.38-1.76.63-2.72h.96ZM167.83,237.1c.46.53,1.58,1.27,2.23,1.95.94.99,1.67,2.32,2.83,3.18l.67-1.33c.75,2.35,3,2.43,4.18,4.34-9.54.54-16.03-8-17.38-16.71,2.78-.12,4.03,2.92,5.35,4.85.34.5,1.32,1.07,1.48,1.49.24.62-.37,1.06.65,2.24ZM172.67,187.49c-.15,1.4-1.47,3.7-1.81,5.25-.24,1.14.62,4.12-1.81,4.03-.68-3.06.47-6.15,1.52-9.02.44-.14,1.29-1.52,1.65-1.34.46.22.5.61.45,1.08ZM174.73,223.84c-.84-.43-1.14-1.36-1.83-2.01-.6-.57-1.75-.52-1.83-1.51-.09-.78-.3-1.53-.36-2.31-.17-2.17-.23-6.55-.02-8.7.07-.68.17-1.26,1.03-1.17.66,3.05.08,5.99.77,9.1.5,2.27,1.95,4.27,2.24,6.61ZM170.39,270.98c2.76.52,3.52,3.09,5.13,4.9.74.83,2.35,1.6,2.89,2.79-2.74,1.52-8.89-6.75-8.02-7.68ZM171.72,166.51c.61-.99,3.7-6.12,5.01-5.17,1.26.91-2.3,4.59-2.94,5.57-1.39,2.13-2.81,5.15-4.26,7.11-.44.6-1.34,1.64-2.15,1.69-.48-.53,3.68-8.13,4.34-9.2ZM168.38,179.39c-.77,2.4-.86,4.98-1.42,7.44-.22.98-.98,1.92-.59,2.92l-1.18-.33-.16-2.82,3.34-7.21ZM164.37,204.46c1.46,2.42-.59,6.88,2,8.04-.94,1.56-.44,2.07,0,3.66-3.5-.54-4.58-2.01-4.3-5.47.05-.63,1.08-7.13,2.29-6.23ZM158.78,194.69c.17-.81,2.11-9.54,3.91-7.94,1.31,2.78-.7,5.17-1.5,7.68-.4,1.25-.98,6.8-1.99,6.95-2.1.3-.66-5.52-.41-6.68ZM153.79,279.55c2.4,1.89,4.85,2.82,6.88,4.99.54.57,1.04.23,1.02,1.48-.48.3-2.85-.76-3.46-1.05-1.03-.49-4.53-2.55-5.04-3.32-.28-.43-.27-1.07-.51-1.41-.36-.52-1.96-1.56-2.36-2.41,1.8-.58,2.59,1.03,3.46,1.72ZM150.24,200.52c.41-2.26.55-6.88,1.69-8.67,1-1.58,1.59-.24,1.6,1.07.01.89-.47,1.78-.53,2.68-.07,1.04.16,4.24-.05,4.93-.41,1.33-1.69,3.37-2.35,4.7-.39.8-.66,1.72-.95,2.56-.43.05-.73-1.15-.76-1.41-.16-1.35,1.05-4.24,1.35-5.87ZM147.99,214.82c1.49,2.32-.13,3.72-.34,5.86-.06.55-.07,3.5-.01,4.01.21,1.76,1.85,4.08.19,6.17-.27-.01-2.01-4.23-2.2-4.84-.12-.41-.81-3.35-.81-3.53-.02-.78,1.95-8.58,3.17-7.66ZM142.97,261.29c.3,1.2,1.54,1.91,2.34,2.85.95,1.11,2.09,3.12,3.02,4,.86.82,2.57,1.07,2.67,2.5-5.61,1.11-7.26-5.27-8.69-9.36h.66ZM141.3,207.13c-.14.32.41,3.48-.49,3l-.79-2.1,1.28-.9ZM140.92,260.9c-.88.39-1.57.66-2.31-.1-.48-.49-2.53-4.39-2.64-5.05-.18-1.09.09-1.91.65-2.81-3-.12-1.98-1.41-1.98-3.18.01-2.29-.03-4.29.98-6.51l.74,5.1c.61,2.08,5.51,11.05,4.55,12.56ZM134.29,224.35c.07-.55.32-2.35.84-2.51,1.72-.51.83,1.81.82,2.49-.06,2.36-.1,5.03,0,7.38.07,1.72.92,3.22.34,4.83l-1.8-2.04c-1-2.07-.51-7.7-.2-10.16ZM126.69,232.46c.13-.65.23-1.46.75-1.93.49,3.05.24,6.84.86,9.84.25,1.21,1.2,2.93,1.5,4.18.88,3.64,1.19,7.27,2.82,10.71l-2.04-.21c-.85-2.18-1.06-5.65-1.95-7.66-.43-.97-1.27-1.3-1.61-2.4-.38-1.23-.32-2.95-.44-4.24-.25-2.65-.44-5.52.11-8.3ZM126.08,271.33c.53.52.98,1.69,1.52,2.32-.77.03-1.29-.59-2.01-.83-.97-.32-1.55.26-2.49-1.19-.77-1.19-.05-1.43-.23-2.41-.14-.79-1.11-1.4-1.28-2.43-.19-1.13,1.03.44,1.2.64,1.45,1.79,1.62,2.25,3.29,3.9ZM123.26,281.67c-2.84-.76-4.74-3-7.04-4.49l-2.99-3.7c.92-.42,2.07.6,2.88.96l7.15,7.22ZM120.81,194.15c.85-2.82,3.87-6.06,4.33-9.34l4.47-2.75c-.51,3.07-2.25,6.02-3.87,8.66-.75,1.22-2.46,4.18-3.5,4.85-1.57,1.02-1.91.2-1.42-1.42ZM122.91,210.31c-.35.52-.72.58-1.33.5v-.66s.83-.33.83-.33l.49.49ZM119.74,215.82c.4-.87,1.08-1.82,2.18-1.67.08,2.2-.56,4.32-.68,6.5-.12,2.18.18,4.52.01,6.69-.11,1.49-.89,3.35-1.02,4.68-.16,1.72,1.24,3.64-.79,3.87-.34.01-1.12-2.63-1.2-3.19-.57-3.77-.07-13.49,1.5-16.89ZM114.09,220.53c.12-.23.65-.81.8-.69,2.4,4.66-2.85,4.56-.8.69ZM112.88,232.69c.06-.69,1.12-5.16,1.52-5.16,1.72,1.53.69,3.58.84,5.15.16,1.7.75,3.41.96,5.08.58,4.61.93,13.99,2.83,17.77.31.62,2.58,2.44,3.22,3.26.62.79,3.12,3.82,1.34,4.34l-5.49-6.89c-3.12-5.02-5.76-17.67-5.22-23.55ZM100.66,239.04c.21-.43.36-.58.86-.49l1.34,9.69c-.85.08-1.5.02-1.85-.82-.16-.39-.54-8.01-.35-8.39ZM92.33,228.53c1.23,1.02,1.2,2.77,1.46,4.22.84,4.77,2.18,14.72,2.07,19.36-.02.98-.83,1.33-.96,2.06-.13.74.65,1.41-.56,2.1-.6,0-1.63-4.17-1.75-4.93-.63-3.84.23-7.03.07-10.62-.07-1.54-.69-3.69-.81-5.36-.05-.76-.55-6.83.49-6.82ZM91.33,252.26c.5,1.28,4.07,8.13,3.18,9.02-2.02.46-2.99-.94-3.51-2.67-.27-.88-.5-6.36.34-6.35ZM74.12,250.92h1c.35,4.03,1.54,7.75,4.35,10.7-.79-3.18-1.37-6.54-2.2-9.73-.39-1.48-2.47-6.5-2.47-7.49v-8.86c.54-.1.7.14.96.54.93,1.46,1.39,8.35,1.8,10.57.93,4.98,2.31,9.91,2.92,14.97.9-.37,1.02-1.49,1-2.34.17-.23,2.99,4.22,3.17,4.68,1.03,2.64.43,5.1,3.84,6.35.35-4.6-3.03-8.08-4.69-11.86-2.76-6.28-2.8-12.87-3.7-19.36-.41-2.92-1.91-5.86-1.97-8.89l-2,3.01c-.4-.84.02-1.61-.08-2.4-.13-.96-.72-2.44-.76-3.1-.13-1.9,1.49-10.32,2.09-12.48.19-.69.7-2.46,1.08-2.93.46-.56,1.3-.61,1.68-1,.45-.46.3-1.32,1.01-1.5-.94,2.13.43,3.47.36,5.52-.15,4.25-1.23,7.97-1.04,12.71.04.85.29,5.33.4,5.63.1.29,1.45,1.04,1.29,2.21l-1.04.2-.3,1.81c.76-.25.47-1.87,1.66-1.67l5.69,25.41c3.72-1.2,3.83,3.87,4.85,6.34,1.24,2.98,6.35,9.15,8.68,11.71.45.5,3.42,3.65,3.68,3.67.44.03.41-.4.16-.82-.4-.68-1.2-1.37-1.61-2.07-1.98-3.39-3.58-8.4-4.91-12.14-.32-.89-1.65-4.79-1.17-5.35l2.46,1.31,2.88-2.15c-3.19-1.86-4.38-5.52-3.33-8.96l.83-.24c.46,1.15,1.31,2.54,1.68,3.67.35,1.06,1,5.16,1.56,5.96.09.13,1.13.46,1.61.9,3.12,2.83,2.45,6.06,3.76,9.61,1.38,3.74,6.12,6.57,8.95,9.43,1.15,1.16,1.23,2.55,3.51,2.87l.98-1.01c1.76.41,1.58,3.03,3.02,3.33.92.2.26-1.17.66-1,.97,1,1.83,1.93,3.1,2.58,3.04,1.56,7.84,3.11,11.23,4.52.72.3,1.16-.26,1.7.61.39.63-.19,1.25.79.72.2,1.44,1.86.87,2.32,1.34.47.48.46,1.89,1.32,2.21l2.91.38.38-.31c-.08-.78-.08-1.23.48-1.85,2.4-2.66,5.26,2.44,6.85,3.86,3.22,2.86,8.16,2.29,12.21,3,1.16-1.12-3.88-3.82-4.66-4.19-3.35-1.59-8.37-2.07-11.5-3.88-1.25-.72-2.99-3.22-4.49-4.28-.74-.53-3.56-1.77-3.74-2.2-.18-.42-.19-.9.48-.82,1.81.2,3.56,2.03,5.53,2,.16-.13-1.03-1.5-1.27-1.65-4.87-3.1-12.09-2.89-13.62-10.04-.08-.36-.41-.48.35-.34,1.2.22,8.98,5.15,10.08,6.14.34.31.5.94.96,1.22.23-3.16-3.71-3.97-5.83-5.54-.58-.43-4.87-4.03-5.06-4.3-.28-.4-.39-.69-.31-1.19.78.06,1.4.49,2.2.64.21.04,1.47.25.98-.31-2.72-.73-4.93-4.69-6.54-5.83-.53-.38-1.35-.35-1.96-.71-2.46-1.45-2.4-10.66-1.86-10.5,2.19,1.25,2.54,3.93,3.85,5.85.94,1.37,2.56,2.29,3.49,3.53,1.52,2.02,2.42,5.49,4.02,7.34,2.42,2.81,5.7,3.59,8.37,5.67,1.84,1.43,2.82,3.77,4.33,5.36.75.78,6.04,4.81,6.76,4.94.4.07,1.18-.55,1.94-.61,2.24-.18,7.37.12,9.7.35,1.07.11,3.77.83,4.64,1.38.93.58,1.83,2.14.73,2.88l-15.56-3.09c2.46,2.04,5.66,2.8,8.44,4.27,3.58,1.89,12.36,8.6,15.8,8.6h5.85c-1.05-1.75-3.14-1.37-4.62-1.9-4.22-1.48-8.32-3.65-12.76-4.46-.26-.87.88-.95,1.5-1,2.41-.21,3.37.31,5.38.64,1.41.23,8.2,1.05,8.66,1.71.27.38.22,1.2.54,1.8.34.63,1.16,1.01,1.46,1.56.21.4.09,1.15.22,1.28.56.6,4.86.58,5.78.74,4.44.77,5.1,1.58,8.65,3.38,1.11.56,3.56.93,4.37,1.58.38.31.18.63.21,1.03-1.72.2-3.23-.67-4.88-.97-1-.18-2.03.05-3.16-.18-1.7-.34-4.83-2.62-6.77-3.26-.89-.29-3.2-.84-3.94-.44-.24.13,0,1.3-.98,2.01-1.14.82-2.78-.02-2.66,1.17,1.48.77,3.18,1.13,4.67,1.86.48.24.84-.08.67.82-2.96.38-5.29-1.8-8-2.53-2.52-.68-5.62-.86-8.19-1.16-.56-.07-1.02-.54-1.41-.58-.91-.09-1.39,1.02-2.02,1.2-.73.21-1.54-.05-2.26.08-.59.11-.94.66-1.67.68-1.05.02-3.23-1.04-4.44-1.28-3.85-.77-7.23-.94-10.77-3.12l.3-.61c-1.69.2-2.87-2.16-3.23-2.38-.88-.55-3.84-.99-5.08-1.53-1.14-.5-3.62-1.95-4.7-2.66-.58-.38-1.29-1.5-1.7-1.66-.51-.21-1.27.25-2.08.12-.4-.07-5.14-1.75-5.37-1.93-.62-.49-.72-1.94-1.73-2.7-1.92-1.44-7.02-2.75-9.65-4.39-2.71-1.69-5.4-4.45-8.08-6.29l-.49.16c1.72,5.28,7.8,9.33,12.96,10.77.44.12,6.58.67,5.09,2.1h-8.69s5.01,3.01,5.01,3.01c.08.59-.75.33-1.12.29-3.57-.37-5.74-3.19-9.24-3.64l1-1-4.34-1.34c.66,1.85-.29,3.61,2.32,4.04l-.24.46.59.18-.16.67c-1.84.2-3.6-1.72-5.17-2.52-1.53-.78-13.41-6.49-14.04-5.84-.02,3.14,3.92,2.88,5.65,3.87.84.48,1.07,1.43,1.61,1.82.55.4,1.52.47,2.07.86.42.3,5.18,3.8,4.71,4.14-.81.03-1.61.04-2.42-.08-6.81-1.05-19.86-14.47-23.38-20.41-1.05-1.78-2.74-5.03-3.45-6.92-.84-2.26-1.04-5.62-2.11-7.58-.62-1.14-2.42-2.7-3.35-4-2.16-3.02-2.9-5.31-2.73-9.13ZM79.18,277.77c-.75-1.63.38-2.51.62-4.12.42-.32,1.25.73,1.48,1.02,2.49,3.18,3.74,7.21,6.35,10.53.75.96,2.01,1.86,2.68,2.84.72,1.05,1.16,2.85,2,3.68.8.79,2.25.74,2.2,2.31-3,1.04-4.14-2.94-5.69-4.84-2.72-3.33-7.89-7.65-9.64-11.43ZM88.49,291.37c-4.62-1.59-6.1-5.08-8.35-8.87-.14-.23-2.23-2.75-.85-2.16.74.31,1.78,2.16,2.32,2.87.65.87,1.08,1.75,1.69,2.48.48.57,5.78,5.04,5.19,5.67ZM36.34,283.01l1.67,12.03c-.4-.02-.71.17-1.02-.21-1.57-1.91-1.27-8.45-1.64-10.99l1-.84ZM40.52,310.09l-.84-.67-.13.27c-1.66-2.5-4.09-7.25-4.87-14.4.69,2.34,1.64,4.84,2.94,7.67.67,1.45,3.25,5.59,3.41,6.63.08.52.01.58-.5.5ZM41.19,286.01c-.91-.76-.9-1.91-.83-3,2.33-.36,1.87,1.77.83,3ZM44.86,292.04c.22.44,1.01.74,1.49.85,1.32.31,4.61.41,6.19.49,5.06.26,17.55.5,21.81,2.26,1.04.43,1.73,1.4,2.68,1.66,1.44.4,5.37.94,6.95,1.07,1.23.1,2.63.08,3.84-.16-.83-.95-7.86-5.6-8.35-5.18l-.55,1.69c-1.71.88-5.75-4.32-5.67-5.2.04-.49.73-.55.4-1.85-.45-1.73-2.5-2.61-3.16-3.88-.43-.82-.35-1.68-.76-2.58-.42-.92-2.87-3.62-3.8-3.89-1.61-.47.91,2.21.98,2.36.61,1.16.81,2.52,1.59,3.76.38.61,1.46,1.33,1.57,1.79.13.54-.39,1.29-.23,2.19.11.62,2.05,3.88,1.61,4.26-3.9.21-5.89-5.06-9.19-.34-.88-.81-2.09-2.02-3.15-2.52-2.42-1.13-5.44-1.77-7.7-3.33-.99-.69-1.04-1.69-1.7-2.31-3.1-2.92-4.52-2.87-7.07-7.3-.91-1.59-2.95-5.84-3.26-7.43-.88-4.49,1.61-1.27,2.33-.98.52.21,1.02-.3,1.65-.03,1.09.47,3.3,4.31,4.81,3.83l1.32-1.26c1.7.29,2.44,2.09,3.93,2.78.42.19,1.13.51.99-.32-.19-1.17-3.62-2.79-4.52-3.84l-.59-4.93c-3.41-2.04-6.85-5.82-7.23-9.99-.19-2.09-.28-3.7,2.29-3.8.57,1.73,1.37,3.98,2.27,5.59,1.75,3.11,6.28,7.75,7.39,10.66.39,1.03.38,3.26.78,3.73.45.52,2.83.7,3.72,1.13,1.84.88,3.35,3.44,4.91,4.45.75.49,1.73.69,2.56,1.11,1.02.52,1.63,1.74,3.1,1.41.37-2.79-1.35-5.6-.52-8.37.14-.47,1.84-3.68,2.19-4.16.31-.43,1.75-1.9,2.16-2.19,1.17-.82,1.12.62,1.7,1.33,1.99,2.4,3.83,4.77,4.16,8.04-1.07.07-2.66-.36-3.16-1.36-.21-.41-.05-1.12-.38-1.35-.43-.3-1.74-.27-2.33-.52-2.97.51,3.42,9.05,4.05,10.24.35.66,2.71,5.79,2.49,6.03-.62.13-.81-.31-1.14-.69-1.09-1.26-2.74-3.37-3.61-4.75-1.54-2.42-2.03-5.07-4.1-6.92-.66.44-.5.76-.42,1.41.45,4,6.03,9.56,8.43,12.97.53.75.57,1.67,1.18,2.5,1.59,2.17,8.27,5.47,10.82,7.24.46.32,1.26,1.59,1.63,1.71,1.38.47,3.34.36,5.12.89,2.88.85,5.35,2.69,7.95,4.08.7.37,2.28.63,2.58.82.37.24,3.37,3.79,3,4.14-1.7.41-2.89-1.22-3.92-1.59-1.69-.6-6.31-1.15-8.39-1.57-2.28-.45-4.87-.77-7.15-1.24-.87-.18-2.3-1.55-3.36-2.01-1.86-.82-8-1.16-10.1-.94-2.1.22-3.01,1.17-5.52.18-1.81-.72-.58-2.03-1.83-3.19-2.52-2.35-12.19-2.09-14.72.33-.67.64-.84,2.18-1.35,2.31l-4.49-1.12c-.84-1.64-.81-3.4-2.5-4.51-.83.97-1.33,1.26-1.33,2.68-.29.45-.77.43-1.19.17-.97-.6-2.55-8.73-2.19-9.88.15-.48.78-1.14,1.03-1.66,1.81-.02.32,3.99.99,5.02ZM43.03,303.41c1.22-.02,2.02,2.78,2.88,2.95,3.25-1.18,8.34-.45,11.49.89,1.31.56,1.79,1.62,2.34,2.84-2.17-.73-4.12-.12-6.19,0-1.22.07-2.46-.09-3.68,0-.5.04-.97-.26-.83.5.27.65,2.8,2.37,3.52,2.5.86.16,3.69.36,4.67.38,2.34.04,4.07-.99,6.52.64-1.23,1.59-3.29,2.64-5.35,2.34-.02.46-.05.91.16,1.34.17.34,5.58,3.22,6.5,3.86,1,.69,1.66,1.83,2.79,2.56,1.52.97,3.49,1.83,5.25,1.27.37.86-.62.56-.68.86-.31,1.56,1.52,1.58,2.02,2.81-9.72-2.35-19.36-8.54-25.73-16.22-.99-1.2-6.67-8.4-5.69-9.52ZM54.14,325.21c-1.19-.48-6.36-6.89-7.38-8.33-.91-1.28-1.94-2.95-2.39-4.45l12.03,13.03c-.8.05-1.5.06-2.25-.25ZM108.38,345.52c-7.51-.73-29.89-6.33-36.38-9.75-1.54-.81-3.06-1.83-4.23-3.12l2-.17-1.33-1.5c.37-.48.5-.54,1.1-.44.75.12,4.4,3.12,5.62,3.75,6.9,3.59,19.1,6.24,26.89,8.54,2.5.74,5.35.98,7.83,2.03.27.98-.84.72-1.5.66ZM121.46,343.16c-3.97-.36-11.1-2.2-15.13-3.27-2.29-.6-8.07-2.13-9.9-3.14-.5-.27-1.02-.59-.91-1.26,2.25-.53,3.63-.1,5.75.43,5.14,1.27,10.14,3.06,15.23,4.49,1.77.5,4.1.7,5.69,1.33,1.97.77.98,1.57-.73,1.41ZM155.01,351.03c-.14.69-1.54.35-1.93.59-.18.11-.18.72-.61.87-1.13.4-6.82-.9-8.64-.97-3.58-.14-6.62-.11-10.29-.73-.78-.13-4.54-1.26-2.93-2.44.63-.46,1.45.65,2-.32-1.18-1.35-4.21-.54-3.67-2.84,2.79-.29,5.46,1.23,8.01,1.85,4.97,1.22,10,1.76,14.97,2.75.69.14,3.37-.12,3.1,1.24ZM171.26,358.86c-2.8-.34-7.13-.9-9.77-1.59-.31-.08-3.12-.63-2.46-1.38l18,2.05.05,1.29c-1.9-.32-3.92-.14-5.82-.37ZM213.68,357.56h-11.37c-.36,0-1.46-.67-2.17-.34-.02-.21.44-.67.5-.67,3.42,0,7.35-.26,10.7,0,.7.05,1.85.66,2.84.34.02.21-.44.67-.5.67ZM205.67,355.57c-5.14.28-10.11-1.12-15.04.33-7.55-1.27-22.62-2.59-28.5-7.29-.39-.31-.92-.38-.76-1.07,3.15-.07,5.95,1.78,9.17,1.32,5.75-.83,5.6-.47,11,.74,7.48,1.67,19.1,4.05,26.44,3.3,1.71-.17,11.91-1.21,12.5-1.43,4.31-1.6,8.46-1.78,13.17-2.69,1.01-.19,2.1-.79,3.13-.89.82-.08.66,1.3.51,1.76-.22.34-1.41.77-1.86.92-4.42,1.49-7.88.19-11.63,1.41-1.04.34-1.94,1.24-3.04,1.64-2.71,1.01-11.8,1.78-15.09,1.96ZM228.55,353.88c-.24.54-.73,1.11-1.34,1,.24-.54.73-1.11,1.34-1ZM324.67,353.55c-14.23,2.19-28.39,2.75-42.81,3.67-6.9.44-13.89,1.25-20.7,1.33-12.68.15-25.33-.27-37.95-.66,2.09-1.85,6.35-.82,9.19-1,12.8-.83,25.57-2.38,38.42-1.7,14.94-4.63,31.2-4.56,46.84-3.66,2.76.16,5.5.71,8.18,1.36-.13.64-.67.59-1.16.67ZM329.93,340.43c-5.19,1.01-9.91.54-14.86,1.52-2.37.47-4.89,1.66-7.16,1.86-2.62.24-5.78-.45-8.48-.3,1.95-1.69,5.68-1.01,8.16-1.37,6.21-.89,13.61-3.01,19.8-3.6,1.84-.17,4.62.41,6.27-.02.25-.07.26-1.38,1.47-1.94,3.55-1.65,11.53-2.56,15.62-3.09,8.29-1.08,20.25-.45,27.65-2.77.61-.19,1.91-.69,2.26-1.24-4.71.83-9.62.98-14.37.33l.67-1-8.02.66c.61-1.05,2.12-1.16,3-1.85.49-.38.71-1.14,1.01-1.33.21-.13,4.38-.58,4.86-.53.8.09,1.2.69,1.95.69,1.04,0,3.35-.85,4.73-.99,1.98-.2,4.49-.08,6.51,0-.81,1.52-5.06,1.13-5.35,2.84-.1.56,0,.54.5.51,1.33-.08,4.99-.94,6.34-1.36,3.48-1.07,4.87-2.43,9.05-2.32.4.01,1.25-.25,1.16.33-1.42.66-3.5.96-4.34,2.34l4.14.02c.38-.11.05-1.15,1.13-1.61.77-.33,8.94-1.63,10.01-1.63.23,0,1.05.16,1.1.22.47.52-.15.57-.43.75-1.14.72-2.85.49-3.76,1.24-.62.5-.72,1.76-1.38,1.97-3.74-.06-7.51,1.67-11.14,1.06-.66,5.62-7.19,7.75-12.05,8.36.17.43.45.84.2,1.33-1.16,2.24-10.42,2.8-12.89,3.01-.98-.98,2.7-2.32,3.33-2.51l7.69-1.49c-4.51.3-9.04.18-13.55.32-6.68.21-12.06.13-18.69,0-5.33-.1-7.26.66-12.13,1.6ZM377.17,347.54c-7.35,1.87-13.98,3.16-21.4,3.96-2.65-.56-5.49.29-8.21-.3l30.42-4.34c.17,1.01-.26.53-.81.67ZM385.39,344.11l-1.4-.43c3.47-.9,7.1-1.44,10.69-1.5l-9.3,1.93ZM367.62,328.81h3.01s0-.34,0-.34h-3.01s0,.34,0,.34ZM204.88,145.86c-.58.17-.87-.12-.72.76,1.8-.52,3.8-.11,5.52-.33.46-.06.99-.2.5-.67-1.72-.47-3.59-.27-5.29.23ZM98.85,177.21c-2.02,2.79-3.51,5.95-4.68,9.19,4.07-5.38,8.2-10.66,13.03-15.37l-8.36,6.18ZM85.15,226.18c1.35-1.13,1.86-3,1.67-4.68-2.39-.59-1.69,3.15-1.67,4.68ZM87.64,200.09c-.54,1-.34,4.81-.58,5.3-.08.17-1.42.83-.91,2.07,1.84-1.71,2.23-5,3.01-7.35l-1.52-.02ZM90.5,302.06c-.27-.7-.92-1.12-1.67-1,.33,1.05.53,1.15,1.67,1ZM94.55,213.89c0,.39.31.7.7.7s.7-.31.7-.7-.31-.7-.7-.7-.7.31-.7.7ZM96.87,285.83c.86.49,1.72.87,2.64,1.2l-6.34-6.52,2.33-.51-8.69-9.36c0,1.07.32,2.18.65,3.19,1.25,3.76,5.93,10.01,9.4,11.99ZM74.07,198.07c5.25-9.1,12.92-16.26,21.11-22.69-2.43,1.18-4.89,2.56-7.12,4.07-5.77,3.9-8.83,8.02-13.43,12.98-1.98,2.13-4.19,4.06-6.18,6.18.77.92,1.9.89,3,.84l-1.34,2.33c.48-.03,1.04.1,1.51,0,.88-.17,3.17-3.43.5-2.68l.34-1.34,1.62.3ZM108.31,290.77c.53.22.99.34,1.58.26.15-.68-.15-.89-.49-1.35-1.78-2.45-6.65-5.57-8.74-8.13-1.95-2.39-3.47-5.34-5.81-7.74-.84-.87-1.64-2.02-3.01-1.33,1.95,2.59,3.93,5.21,6.02,7.68,1.95,2.3,8.14,9.66,10.45,10.61ZM175.74,307.08h-2.67s0,.34,0,.34h2.67s0-.34,0-.34ZM179.08,150.97l1.14.31c.77-1.69,2.06-.63,3.56-1.12l.31-1.52c-.87-.59-5.4,1.9-5.01,2.33ZM307.88,165.06c-.92-.24-1.52.83-1.94.85-.92.05-3.15-2.99-1.66,2.44l4.17,8.03c.33-2.58-1.03-5.77-.95-8.21.03-1.09,1.37-1.73,1.27-2.28l-.89-.83ZM410.23,140.68l.67,1.79.51-.19-.67-1.79-.51.19ZM114.85,136.05c-1.61,3.49-4.07,6.56-5.3,10.24.41.43,2.02-1.56,2.28-1.89,4.69-5.92,10.55-17.83,12.27-25.17.6-2.58.48-6.6,1.24-8.79.14-.41.45-.63.75-.91.84.46,1.04,1.91,1.66,2.38.62.46,1.2-.26,1.69.27.42.45.49,1.53.89,2.14,1.53,2.39,5.06,5.57,7.64,6.74,3.01,1.36,4.29,1.57,7.38,3.32.85.48,2.68.42,2.94,1.41.29,1.09-.8,1.33-1.65.98-3.32-2.1-7.67-3.01-10.91-5.15-1.93-1.27-3.35-3.56-5.11-4.91-.34-.26-.42-.65-1-.5.36,2.87.44,5.58-.09,8.44-.64,3.51-2.6,5.83-.58,9.61l.5-.33,1.57-12.47.76-.57c.27.32.84.65,1,1.01.52,1.14-.29,8.12-.55,9.8-.32,2.1-.54,3.63-1.89,5.35.08,1.27,1.26.89,1.85,1.32.59.43.23,1.44,1.85,1.18,21.95-9.6,45.81-13.46,69.62-15.32,9.92-.77,18.56-.96,28.41,0,1.96.19,4.53.98,6.37,1.01,16.17.25,28.78,5.96,43.95,10.18,11.75,3.26,22.81,7,33.88,12.25,11.4,5.4,23.09,10.73,34.31,16.5,2.45,1.26,7.61,5.1,10.16,4.85.79-.08,1.4-.78,2.11-.92,2.95-.59,11.89-1.29,14.57-.67,6.13,1.42,9.05,5.51,14.04,8.35,1.26.72,2.7,1.11,3.91,1.94.68-.72-3.98-3.05-4.46-3.39-4.47-3.27-7.45-7.28-13.31-8.75-5.87-1.47-9.86,1.26-14.86,1.77-2.23.22-3.78-1.77-5.57-2.41-6.47-2.32-12.52-5.62-18.75-8.66-11.66-5.68-23.37-11.52-35.39-16.42-9.26-3.77-19.17-6.85-28.75-10.03-2.65-.88-4.94-1.96-7.28-2.75-2.21-.75-4.96-.44-7.11-.91-.93-.2-2.09-1.1-3.25-1.43-10.51-3.03-21.47-2.2-32.26-3.18-1.72-.16-3.61-.85-5.36-.99-2.05-.16-4.16.24-6.2-.15-.36-.26-1.75-7.11-1.89-8.13-.84-6.03,1.32-17.18,3.01-23.21,3.31-11.8,7.58-23.3,11.1-35.03.64-2.14,1.54-4.21,2.17-6.35-2.58.83-2.3,2.65-3.39,4.47-.56.93-1.81,1.98-2.44,2.91-3.36,4.99-6.56,10.85-10.23,15.51-6.77,8.6-16.05,13.91-23.89,21.24-1.81,1.69-3.47,4.26-5.54,5.83-2.15,1.62-6.48,4.33-8.89,5.82-16.07,9.92-31.53,10.93-47.68.32-5.18-3.4-6.93-10.37-10.2-15.21-.29-.43-.38-.91-1.07-.77.5,1.99,1.49,3.8,2.09,5.76,2.56,8.28,4.35,15.05,3.21,23.78-.77,5.92-1.88,13.34-4.35,18.71ZM167.36,119.7c-1.95.39-6.37,2.64-7.78,2.14-.43-.15-.57-.58-.76-.94-.2-.87,5.02-3.18,5.95-3.46,4.39-1.31,7.87-.58,12.63-2.42,4.92-1.9,9.35-4.94,13.95-7.45,1.53.58,1.92,1.57.78,2.79-2.25,2.41-14.34,8.32-17.65,8.76-2.35.31-4.65.08-7.12.57ZM196.14,118.36c-.18,1.81-7.77,4.96-9.46,4.46-.71-.21-1.32-1.16-.57-1.78,2.37-.32,6.83-4.21,8.61-4.46.97-.14,1.51.94,1.43,1.78ZM210.01,96.17c-.21,1.13-3.8,5.54-4.65,7.37-1.05,2.26-1.49,5.87-2.47,7.56-.57.99-1.67,1.47-2.03.18-.37-1.33,1.43-8.22,2.12-9.78.46-1.04,4.67-6.79,5.41-6.99.8-.21,1.75.91,1.61,1.66ZM206.23,82.68c2.36-3.68,3.69-9.96,8.28-10.94.18,1.05-.19,1.7-.61,2.57-2.47,5.22-8.92,14.85-12.48,19.61-1.84,2.45-3.79,4.76-6.63,6.09l-.62-.96c1.81-2.78,4.13-5.25,6.1-7.95,1.88-2.59,4.27-5.78,5.96-8.41ZM171.94,107.22c2.4-2.33,7.33-4.18,10.12-6.26,3.47-2.58,6.81-6.27,10.23-8.82.56-.42,3.69-2.52,4.07-2.62,2.19-.54.43,2.13-.4,2.96-4.44,4.41-16.34,13.69-22.01,15.76-1.34.49-3.91.81-2.03-1.02ZM138.3,112.86c3.79-.18,7.06,1.92,10.86,1.66,3.88-.26,13.66-5.39,16.16-4.78,1.18.29,2,1.08.63,1.85-4.71,2.65-13,6.37-18.38,5.53-1.29-.2-2.9-1.11-4.19-1.5-.98-.29-4.12-.65-4.67-1.18-.26-.24-.56-1.45-.41-1.59ZM311.95,171.69c1.35-2.55,1.88-4.82-1.68-5.29-1.28.21.74,5.51,1.68,5.29ZM294.59,193.41c-1.21-5.21-4.13-13.76-7.55-17.86-1.49-1.78-3.92-3.11-5.56-4.64-1.12-1.04-1.91-3.65-3.79-2.73,3.91,3.42,7.01,7.31,9.53,11.86,1.58,2.85,2.91,5.36,4.57,8.13,2.32,3.87,2.89,8.63,2.96,13.09.04,2.99-.78,5.26-1.01,8.04-.04.44-.29,2.07.33,2.17,1.04-5.58,2.4-11.19,2.67-16.88.07-1.37.24-7.49-1.51-7.85l-.79.55c-.05,2.36.88,5.07.94,7.34,0,.38-.06,1.46-.64,1.46.02-.91.05-1.79-.15-2.69ZM287.05,160.84c1.3.59,2.87,4.6,3.65.87-3.91-2.79-8.78-3.47-13.34-4.38,2.27,1.67,3.45,4.2,5.23,6.31l3.45-.8c0-.42-2.56-1.68-2-2.17.95.08,2.12-.23,3,.17ZM403.39,194.09c.89,1.05,2.29-3.73,2.32-4.2.05-1.02-1.05-4.28-2.15-4.49-.57-.11-.52-.03-.44.44.2,1.1.95,2.84.95,3.75,0,1.27-1.18,2.95-.68,4.51ZM402.05,195.1c-.46-.17-2.08.47-1.67.66.62.05,1.47.09,1.67-.66ZM234.34,243.5c-.34,1.98-1.1,4.81.41,6.42,1.47-1.04,2.51-2.54,3.18-4.17,1.83-4.45,2.52-9.05,3.84-13.55,1.59-5.46,3.46-10.86,4.85-16.38,3.27,1.1,6.68,1.82,9.95,2.92,7.39,2.49,13.49,4.06,20.93,6.14,2.56.72,5.04,3.12,7.51.09-.73-3.68-5.46-2.96-8.48-4.13-1.74-.67-3.67-2.06-5.52-2.84-2.58-1.08-5.21-1.61-7.76-2.6-4.72-1.83-9.33-3.96-14.14-5.58-.68-.99,1.67-7.51,2.03-9.03,1.21-5.01,2.03-10.13,3.26-15.12,1-4.06,3.72-9.49,2.9-13.8-.3-1.59-2.01-1.94-3.01-.69-1.88,2.35-2.14,7.49-2.74,10.29-1.94,9.07-4.05,18.05-7.93,26.51-3.66-.8-7.13-2.31-10.71-3.37-5.22-1.54-17.37-5.59-22.21-4.83-.75.12-1.43.54-1.84,1.19l1.8,1.82c10.96,1.83,20.9,7.23,31.12,11.33.51.84-.81,5.96-1.13,7.24-1.85,7.22-5.01,14.77-6.3,22.12ZM423.78,222.35c.06.46.17.97.66.49.34-.33.87-5.61-.33-6.02.21,1.86-.59,3.66-.34,5.52ZM412.07,143.62l-.67.51c.51,1.07,1,2.21,1.32,3.35,1.94,7.01,4.08,14.28,6.06,21,2.26,7.66,3.83,15.09,5.01,22.76.43,2.8,1.48,5.97,1.65,8.71.31,4.81-.94,10.29-.33,15.05.06.49.26,1.04.67.49l.35-21.58c-1.18-1.83-.35-3.83-.7-5.65-.14-.75-.84-1.16-.98-2.04-.21-1.32.37-3.03.24-4.24-.2-1.84-1.26-4.3-1.56-6.13-1.18-7.21-1.34-14.89-3.54-21.87-.74-2.34-2.68-5.78-3.04-8.01-.08-.51.15-.87.19-1.35-.65.13-1.49.94-1.59,1.58-.37,2.36,3.77,10.2,4.22,13.02l-.95.77-6.36-16.38ZM416.26,143.54l-.87-2.06-.48.2.87,2.06.48-.2ZM221.55,175.88c-.61.74-2.07.78-2.02,1.83l7.02-5.01c-1.33.52-3.27.91-4.34,1.86-.69.62-.37.98-.65,1.32ZM247.61,150.3l-.99.84c.63.92,1.12.12.99-.84ZM211.34,173.7c1.18-.83.24-2.67-.75-1.58-.7.77-.43,1.74.75,1.58ZM297.58,159.54c.27,0,3.27-1,3.17-1.71-.22-1.05-5.11-2.29-5.95-1.77-.18.11-.22.81-.59.9-.39.1-5.28-1.9-6.72-1.96-.62-.02-1.05-.11-1.45.48-.31.63.66.55,1.01.65,2.6.77,5.29,1.37,7.87,2.17.75.23,2.18,1.23,2.66,1.23ZM237.25,143.78l3,.83v-1c-1.01.14-2.22-.9-3,.16ZM228.89,143.78c1.04,1.48,5.3.78,4.68-1.5-2.87-1.07-2.2,1.63-4.68,1.5ZM219.86,142.95c-.6.8,2.97,1.51,3.59,1.6.69.1,1.29.24,1.75-.44.08-.57.02-.89-.57-1.09-1.89-.63-2.87-.94-4.77-.07ZM250.62,143.95c-1.82-.35-3.97-.61-5.01,1.33,1.31-.2,2.81-.45,4.09-.76.33-.08,1.01-.1.93-.57ZM214.24,144.18c-.34.08-.82-.04-.72.44.55.18,1.25.08,1.75.33.32.16,1.5,2.13,1.92,1.68l-.29-2.11,1.63-1.23c-1.42.25-2.88.56-4.29.89ZM249.13,160.99c-1.45-.07-2.82.34-3.99.31-1.12-.03-3.64-.9-4.39-.82-.67.07-1.71,1.47-2.48,1.71-1.15.36-2.75-.35-3.36.81h19.72c1.29-1.09-5.06-1.99-5.5-2.01ZM286.38,184.72c-.25-.8-.26-1.83-.59-2.57-1.87-4.16-7.94-12.76-11.61-15.46-1.42-1.05-3.43-1.53-4.83-2.53-1.18-.84-1.98-2.38-3.36-2.99-1.53-.68-3.46-.56-5.1-.92-.93-.21-1.85-1.48-2.59-.42,1.26,2.14,4.23,2.31,6.36,3.33,1.21.58,5.9,3.36,6.27,4.43.1.28.23,1.43-.1,1.44-1.46.06-1.4-1.95-2.48-2.21-.93-.23-1.49.24-2.13.15-.17-.03-3.95-2.34-2.75-.6.86,1.25,2.17.73,3.18,1.17.51.22,1.97,1.57,2.94,2.07,1.51.78,3.87,1.14,4.93,1.75.27.15,4.06,3.7,4.51,4.18,2.54,2.69,4.75,6.05,6.01,9.54l1.32-.35ZM283.71,153.31c-.03-3.27-3.31-2.88-5.68-2.67-.4,1.62,5.45,2.91,5.68,2.67ZM280.7,167.01c.32-.36-1.75-4.67-2.16-5.36-1.22-2.06-5.47-7.38-8.21-5.84-.5.41.61,1.48.87,1.81,1.53,1.91,3.16,3.76,4.68,5.68l4.81,3.71Z"/>
</svg>